<svg xmlns="http://www.w3.org/2000/svg" xmlns:xlink="http://www.w3.org/1999/xlink"><symbol fill="none" viewBox="0 0 22 13" id="arrow" xmlns="http://www.w3.org/2000/svg"><path fill-rule="evenodd" clip-rule="evenodd" d="M17.879 7.5H.293v-2h17.586l-3.293-3.293L16 .793 21.707 6.5 16 12.207l-1.414-1.414L17.879 7.5z" fill="currentColor"/></symbol><symbol fill="none" viewBox="0 0 22 12" id="arrow-double" xmlns="http://www.w3.org/2000/svg"><path fill-rule="evenodd" clip-rule="evenodd" d="M18.879 6l-4.293-4.293L16 .293 21.707 6 16 11.707l-1.414-1.414L18.879 6zm-7.25 1H.293V5h11.336L8.336 1.707 9.75.293 15.457 6 9.75 11.707l-1.414-1.414L11.629 7z" fill="currentColor"/></symbol><symbol fill="none" viewBox="0 0 22 13" id="arrow-right" xmlns="http://www.w3.org/2000/svg"><path fill-rule="evenodd" clip-rule="evenodd" d="M17.879 7.5H.293v-2h17.586l-3.293-3.293L16 .793 21.707 6.5 16 12.207l-1.414-1.414L17.879 7.5z" fill="currentColor"/></symbol><symbol fill="none" viewBox="0 0 20 20" id="burger-icon" xmlns="http://www.w3.org/2000/svg"><path fill-rule="evenodd" clip-rule="evenodd" d="M20 2H0V0h20v2zm0 9H0V9h20v2zM0 20h20v-2H0v2z" fill="currentColor"/></symbol><symbol viewBox="0 0 17 10" id="caret" xmlns="http://www.w3.org/2000/svg"><path fill="#FFF" d="M16.301.963l-.67-.67a.999.999 0 00-1.414 0l-5.92 5.92-5.92-5.92a.999.999 0 00-1.414 0l-.67.67a1 1 0 000 1.414L7.55 9.634a.993.993 0 00.747.286.99.99 0 00.747-.286l7.257-7.257a.999.999 0 000-1.414"/></symbol><symbol fill="none" viewBox="0 0 18 10" id="chevron-down" xmlns="http://www.w3.org/2000/svg"><path fill-rule="evenodd" clip-rule="evenodd" d="M9 6.982L2.207.19.793 1.604 9 9.81l8.207-8.207L15.793.189 9 6.982z" fill="currentColor"/></symbol><symbol fill="none" viewBox="0 0 22 22" id="close-icon" xmlns="http://www.w3.org/2000/svg"><path fill-rule="evenodd" clip-rule="evenodd" d="M11 12.414l9.293 9.293 1.414-1.414L12.414 11l9.293-9.293L20.293.293 11 9.586 1.707.293.293 1.707 9.586 11 .293 20.293l1.414 1.414L11 12.414z" fill="currentColor"/></symbol><symbol fill="none" viewBox="0 0 20 20" id="download" xmlns="http://www.w3.org/2000/svg"><path fill-rule="evenodd" clip-rule="evenodd" d="M14.293 9.293L11 12.586V0H9v12.586L5.707 9.293l-1.414 1.414L10 16.414l5.707-5.707-1.414-1.414zM0 20h20v-2H0v2z" fill="currentColor"/></symbol><symbol fill="none" viewBox="0 0 20 20" id="download-icon" xmlns="http://www.w3.org/2000/svg"><path fill-rule="evenodd" clip-rule="evenodd" d="M14.293 9.293L11 12.586V0H9v12.586L5.707 9.293l-1.414 1.414L10 16.414l5.707-5.707-1.414-1.414zM0 20h20v-2H0v2z" fill="currentColor"/></symbol><symbol viewBox="0 0 22 18" id="email" xmlns="http://www.w3.org/2000/svg"><path fill-rule="evenodd" clip-rule="evenodd" d="M22 .5H0v17h22V.5zM2 3.58V15.5h18V3.58l-9 7.2-9-7.2zM18.15 2.5H3.85l7.15 5.72 7.148-5.72z" fill="currentColor"/></symbol><symbol fill="none" viewBox="0 0 13 13" id="external" xmlns="http://www.w3.org/2000/svg"><path fill-rule="evenodd" clip-rule="evenodd" d="M9.035 2.162h-5.09V0h8.724v8.724h-2.162V3.75l-8.954 9.249L0 11.495l9.035-9.333z" fill="currentColor"/></symbol><symbol viewBox="0 0 20 20" id="facebook" xmlns="http://www.w3.org/2000/svg"><path d="M10 0C4.477 0 0 4.504 0 10.06c0 5.021 3.656 9.182 8.438 9.94v-7.03h-2.54v-2.91h2.54V7.844c0-2.524 1.493-3.915 3.776-3.915 1.094 0 2.24.196 2.24.196V6.6H13.19c-1.24 0-1.628.777-1.628 1.573v1.886h2.771l-.443 2.91h-2.328v7.03C16.344 19.244 20 15.082 20 10.06 20 4.504 15.523 0 10 0z" fill="currentColor"/></symbol><symbol fill="none" viewBox="0 0 381 56" id="header-logo" xmlns="http://www.w3.org/2000/svg"><path fill-rule="evenodd" clip-rule="evenodd" d="M43.227 18.502c2.543 2.691 4.625 5.86 4.633 9.498-.008 3.638-2.09 6.815-4.633 9.498-1.022 1.093-2.089 2.146-3.155 3.199-2.37 2.342-4.737 4.679-6.582 7.426-.831 1.252-1.531 2.535-2.008 3.836-.478 1.308-.741 2.617-.774 3.893a28.25 28.25 0 01-8.732-.46c2.798-7.705 8.633-12.166 15.333-17.12 2.436-1.885 4.905-3.852 6.551-6.395.799-1.235 1.202-2.552 1.202-3.877 0-1.325-.403-2.642-1.202-3.877-1.646-2.543-4.115-4.51-6.551-6.395-6.7-4.954-12.535-9.415-15.333-17.119a28.193 28.193 0 018.732-.46c.033 1.275.296 2.584.774 3.892.477 1.3 1.168 2.593 2.008 3.836 1.846 2.743 4.212 5.082 6.584 7.426 1.066 1.053 2.132 2.107 3.153 3.2zm-4.52 11.243c-.83 2.428-2.773 4.074-4.723 5.506-2.099 1.474-4.328 2.793-6.535 4.1-1.603.948-3.194 1.89-4.716 2.88-2.758 1.777-5.572 3.752-7.704 6.148-.98 1.102-1.745 2.288-2.099 3.366a28.367 28.367 0 01-6.247-5.342c2.478-2.576 5.761-4.477 8.996-5.992 2.126-1.02 4.267-1.926 6.403-2.831 1.122-.475 2.242-.95 3.358-1.44.31-.144.696-.314 1.137-.507 3.289-1.444 9.612-4.22 9.612-7.617 0-3.382-6.27-6.143-9.57-7.596-.459-.201-.86-.378-1.179-.527-1.116-.49-2.236-.965-3.357-1.44h-.001c-2.136-.905-4.277-1.812-6.403-2.832-3.226-1.514-6.51-3.415-8.996-5.991a28.118 28.118 0 016.247-5.342c.354 1.078 1.12 2.263 2.099 3.366 2.132 2.395 4.946 4.37 7.704 6.148 1.493.964 3.051 1.884 4.622 2.812 2.238 1.321 4.5 2.657 6.629 4.151 1.95 1.433 3.893 3.07 4.724 5.507.197.584.288 1.168.28 1.736a5.038 5.038 0 01-.28 1.737zm-18.323 3.041c3.27-.76 8.818-2.048 8.818-4.786 0-2.735-5.542-4.024-8.81-4.784-.478-.111-.908-.21-1.264-.302-4.585-1.046-15.729-4.453-17.391-5.153A27.68 27.68 0 000 24.724c.036.003.243.007.594.015 3.93.082 25.81.542 25.81 3.27 0 2.735-21.88 3.188-25.81 3.269-.35.007-.558.012-.594.014.28 2.428.872 4.766 1.737 6.963 1.662-.708 12.806-4.123 17.39-5.169.355-.09.782-.19 1.257-.3zM42.83 6.296a35.942 35.942 0 01-1.399-2.749C50 8.33 55.794 17.49 55.794 28S50 47.663 41.432 52.453a39.21 39.21 0 011.4-2.75c1.171-2.173 2.559-4.168 3.925-6.131 3.056-4.393 6.007-8.633 6.206-14.395a27.715 27.715 0 000-2.354c-.2-5.762-3.15-10.002-6.206-14.395-1.366-1.963-2.754-3.958-3.926-6.132zm31.506 17.91V.008h2.782l10.799 15.391 2.493 3.761-.18-3.687V.008h3.143v24.206H90.56L79.465 8.46 77.3 5.243l.181 3.218v15.753h-3.144v-.008zm25.901-8.593c-2.493 1.12-4.263 2.601-4.263 4.947 0 2.312 1.663 4.008 4.634 4.016 3.605 0 5.49-2.6 6.066-4.913v1.226c0 2.46 1.3 3.325 3.103 3.325h1.176v-2.856h-.279c-.642 0-.972-.255-.972-1.086v-7.186c0-4.148-2.312-6.716-6.609-6.716-3.9 0-6.502 2.206-7.547 4.009l2.132 2.205c.897-1.91 2.559-3.358 5.053-3.358 2.741 0 3.72 1.515 3.827 3.572l-6.321 2.815zm6.428 1.877c0 2.527-2.09 4.477-5.053 4.477-1.63 0-2.461-.716-2.461-1.91 0-1.086.757-1.81 2.42-2.6l5.094-2.387v2.42zm6.749 2.238V9.177h-2.814V6.724h2.814V4.486l3.144-2.313v4.551h5.745v2.453h-5.745v9.613c0 2.239 1.046 2.782 2.42 2.782 1.556 0 2.634-1.3 3.103-2.387l1.045 3.103c-.757 1.193-2.419 2.313-4.839 2.313-2.848.008-4.873-1.877-4.873-4.873zm11.482-13.004v12.1c0 3.686 2.132 5.744 5.564 5.744 3.506 0 5.382-2.379 6.033-5.128v4.766h3.103V6.724h-3.103v9.935c0 2.889-1.227 5.275-4.626 5.275-2.963 0-3.868-1.63-3.868-3.868V6.724h-3.103zm17.284 17.482V6.724h3.144v4.659c.683-2.708 2.494-5.062 5.457-5.062 1.876 0 3.687 1.333 3.687 3.794 0 1.482-.395 2.568-.683 2.996h-3.432c.576-.502 1.045-1.588 1.045-2.568 0-1.012-.543-1.876-1.802-1.876-2.239 0-4.264 2.633-4.264 5.638v9.9h-3.152zm16.584-8.593c-2.494 1.12-4.263 2.601-4.263 4.947 0 2.312 1.662 4.008 4.633 4.016 3.605 0 5.49-2.6 6.066-4.913v1.226c0 2.46 1.301 3.325 3.103 3.325h1.177v-2.856h-.28c-.642 0-.971-.255-.971-1.086v-7.186c0-4.148-2.313-6.716-6.609-6.716-2.453 0-3.959.544-5.317 1.638 0 0 .453 1.54-.099 4.576 0 0 2.56-3.358 5.054-3.358 2.741 0 3.72 1.515 3.827 3.572l-6.321 2.815zm6.436 1.877c0 2.527-2.098 4.477-5.061 4.477-1.622 0-2.453-.716-2.453-1.91 0-1.086.757-1.81 2.42-2.6l5.094-2.387v2.42zm6.766 6.716V.008h3.144v24.198h-3.144zM185.646.008v24.206h3.144v-9.646h3.868c2.379 0 3.679.576 4.585 2.205l4.263 7.44h3.687l-4.337-7.48c-.757-1.334-1.663-2.091-2.782-2.453 3.729-.51 6.362-2.963 6.362-6.832 0-4.84-3.506-7.44-8.238-7.44h-10.552zm3.144 11.918V2.79h6.897c2.889 0 5.49 1.045 5.49 4.658 0 3.432-2.601 4.478-5.49 4.478h-6.897zm16.65 3.54c0-5.532 3.391-9.104 8.198-9.104 4.946 0 7.95 3.284 7.95 8.42 0 .543-.074 1.086-.148 1.407h-12.971c.181 3.688 2.239 5.778 5.35 5.778 3.506 0 4.913-1.917 5.597-3.432l1.917 2.165c-1.3 2.099-3.72 3.868-7.514 3.868-4.947 0-8.379-3.539-8.379-9.103zm3.103-1.556h10.222c-.321-3.218-2.205-4.914-5.127-4.914-2.815.008-4.691 1.663-5.095 4.914zm17.35 4.05l-2.28 1.769c1.194 3.25 4.519 4.84 8.173 4.847 3.391 0 6.354-1.555 6.354-5.02 0-2.42-1.3-4.05-5.235-4.988l-2.238-.576c-2.379-.576-3.539-1.12-3.539-2.675 0-1.481 1.3-2.28 3.102-2.28 2.494 0 4.157 1.3 5.021 3.358l2.387-1.77c-.98-2.312-3.539-4.263-7.226-4.263-3.795 0-6.247 1.951-6.247 5.128 0 3.218 2.707 4.411 5.201 4.988l2.313.543c2.058.469 3.646.98 3.646 2.568 0 1.547-1.374 2.345-3.432 2.345-3.473 0-5.383-1.991-6-3.975zm14.239-2.495c0-5.53 3.399-9.103 8.239-9.103 4.839 0 8.271 3.572 8.271 9.103s-3.432 9.103-8.271 9.103c-4.84 0-8.239-3.572-8.239-9.103zm13.333 0c0-4.444-2.098-6.469-5.094-6.469-2.963 0-5.021 2.025-5.021 6.47 0 4.41 2.058 6.468 5.021 6.468 2.996 0 5.094-2.057 5.094-6.469zm6.009-8.74v12.098c0 3.687 2.123 5.745 5.563 5.745 3.506 0 5.383-2.379 6.033-5.128v4.766h3.103V6.724h-3.103v9.935c0 2.889-1.234 5.275-4.625 5.275-2.963 0-3.869-1.63-3.869-3.868V6.724h-3.102zm17.646 17.48V6.726h3.144v4.658c.683-2.708 2.493-5.062 5.456-5.062 1.877 0 3.688 1.333 3.688 3.794 0 1.482-.395 2.568-.683 2.996h-3.433c.577-.502 1.046-1.588 1.046-2.568 0-1.012-.544-1.876-1.803-1.876-2.238 0-4.263 2.633-4.263 5.638v9.9h-3.152zm21.769-17.843c-5.021 0-8.239 3.572-8.239 9.103 0 5.564 3.218 9.103 8.239 9.111 4.552 0 7.226-2.633 8.058-6.14l-3.07-1.267c-.362 2.782-1.803 4.806-4.947 4.806-3.177 0-5.094-2.378-5.094-6.502 0-4.123 1.917-6.469 5.094-6.469 3.144 0 4.585 1.984 4.947 4.766l3.07-1.268c-.832-3.506-3.506-6.14-8.058-6.14zm10.239 9.103c0-5.53 3.399-9.103 8.197-9.103 4.947 0 7.951 3.284 7.951 8.42 0 .543-.074 1.086-.148 1.407h-12.972c.181 3.688 2.239 5.778 5.35 5.778 3.506 0 4.914-1.917 5.597-3.432l1.918 2.165c-1.301 2.099-3.721 3.868-7.515 3.868-4.946 0-8.378-3.539-8.378-9.103zm3.102-1.555h10.223c-.33-3.218-2.206-4.914-5.128-4.914-2.815.008-4.691 1.663-5.095 4.914zm-50.568 29.588v12.099h3.144V31.399h-3.144v12.099zm6.256 12.099V38.115h3.144v4.659c.683-2.708 2.567-5.02 6-5.02 3.432 0 5.563 2.057 5.563 5.777v12.066h-3.103v-11.3c0-2.28-.905-3.869-3.868-3.869-3.358 0-4.592 2.346-4.592 5.276v9.901h-3.144v-.008zM287.3 49.35l-2.28 1.77c1.194 3.25 4.511 4.84 8.173 4.847 3.391 0 6.354-1.555 6.354-5.02 0-2.42-1.3-4.05-5.235-4.988l-2.238-.576c-2.379-.576-3.539-1.12-3.539-2.675 0-1.481 1.3-2.28 3.103-2.28 2.493 0 4.156 1.3 5.02 3.358l2.387-1.77c-.98-2.312-3.539-4.263-7.226-4.263-3.795 0-6.247 1.951-6.247 5.128 0 3.218 2.708 4.411 5.201 4.988l2.313.543c2.058.469 3.646.98 3.646 2.568 0 1.547-1.374 2.345-3.432 2.345-3.473 0-5.383-1.991-6-3.975zm16.05 1.77V40.567h-2.815v-2.453h2.815v-2.239l3.144-2.312v4.551h5.744v2.453h-5.744v9.613c0 2.239 1.045 2.782 2.419 2.782 1.556 0 2.634-1.3 3.103-2.387l1.045 3.103c-.757 1.193-2.419 2.313-4.839 2.313-2.856.008-4.872-1.877-4.872-4.873zm11.769-17.77v1.95h3.144v-3.9h-3.144v1.95zm0 13.506v8.74h3.144v-17.48h-3.144v8.74zm7.893 4.263V40.568h-2.815v-2.453h2.815v-2.239l3.144-2.312v4.551h5.745v2.453h-5.745v9.613c0 2.239 1.045 2.782 2.42 2.782 1.556 0 2.634-1.3 3.103-2.387l1.045 3.103c-.757 1.193-2.42 2.313-4.839 2.313-2.848.008-4.873-1.877-4.873-4.873zm11.482-13.004v12.1c0 3.686 2.131 5.744 5.564 5.744 3.506 0 5.382-2.379 6.032-5.128v4.766h3.103V38.115h-3.103v9.935c0 2.889-1.226 5.275-4.625 5.275-2.963 0-3.868-1.63-3.868-3.868V38.115h-3.103zm19.514 13.004V40.568h-2.815v-2.453h2.815v-2.239l3.144-2.312v4.551h5.745v2.453h-5.745v9.613c0 2.239 1.045 2.782 2.42 2.782 1.555 0 2.633-1.3 3.102-2.387l1.046 3.103c-.757 1.193-2.42 2.313-4.84 2.313-2.848.008-4.872-1.877-4.872-4.873zm18.806-13.366c-4.798 0-8.197 3.572-8.197 9.103 0 5.564 3.432 9.103 8.378 9.103 3.795 0 6.214-1.77 7.515-3.868l-1.918-2.165c-.683 1.515-2.09 3.432-5.597 3.432-3.111 0-5.168-2.09-5.349-5.777h12.971c.074-.322.148-.865.148-1.408 0-5.136-3.004-8.42-7.951-8.42zm5.128 7.548H367.72c.403-3.251 2.28-4.914 5.094-4.914 2.922 0 4.799 1.696 5.128 4.914zM97.876 46.856c0-5.53 3.391-9.103 8.239-9.103 4.839 0 8.272 3.572 8.272 9.103s-3.441 9.103-8.28 9.103c-4.84 0-8.23-3.572-8.23-9.103zm13.325 0c0-4.444-2.09-6.469-5.094-6.469-2.963 0-5.021 2.025-5.021 6.47 0 4.41 2.058 6.468 5.021 6.468 3.004 0 5.094-2.057 5.094-6.469zm3.523-8.74l6.321 17.48h3.975l6.354-17.48h-3.358l-3.432 10.37-1.481 4.806-1.515-4.806-3.465-10.37h-3.399zm16.914 8.74c0-5.53 3.391-9.103 8.197-9.103 4.947 0 7.951 3.284 7.951 8.42 0 .543-.074 1.087-.148 1.407h-12.972c.181 3.688 2.239 5.778 5.35 5.778 3.506 0 4.914-1.917 5.597-3.432l1.918 2.165c-1.301 2.099-3.721 3.868-7.515 3.868-4.946 0-8.378-3.539-8.378-9.103zm3.102-1.555h10.223c-.321-3.218-2.206-4.914-5.128-4.914-2.815 0-4.699 1.663-5.095 4.914zm15.696-7.186v17.482h3.152v-9.901c0-3.005 2.025-5.638 4.263-5.638 1.26 0 1.803.864 1.803 1.876 0 .98-.469 2.066-1.045 2.568h3.432c.288-.428.683-1.514.683-2.996 0-2.46-1.811-3.794-3.687-3.794-2.963 0-4.774 2.354-5.457 5.062v-4.659h-3.144zm14.272 17.482V38.115h3.144v4.659c.683-2.708 2.568-5.02 6-5.02s5.564 2.057 5.564 5.777v12.066h-3.103v-11.3c0-2.28-.906-3.869-3.869-3.869-3.358 0-4.584 2.346-4.584 5.276v9.901h-3.152v-.008zm21.695-8.593c-2.493 1.12-4.263 2.601-4.263 4.947 0 2.312 1.662 4.008 4.642 4.016 3.613 0 5.49-2.6 6.066-4.913v1.226c0 2.46 1.3 3.325 3.103 3.325h1.177v-2.856h-.28c-.65 0-.98-.255-.98-1.086v-7.186c0-4.148-2.312-6.716-6.609-6.716-3.901 0-6.502 2.206-7.547 4.009l2.132 2.205c.897-1.91 2.559-3.358 5.053-3.358 2.741 0 3.72 1.515 3.827 3.572l-6.321 2.815zm6.42 1.877c0 2.526-2.09 4.477-5.053 4.477-1.622 0-2.453-.716-2.461-1.91 0-1.086.757-1.81 2.419-2.6l5.095-2.387v2.42zm6.708 6.716V38.115h3.144v4.659c.683-2.708 2.568-5.02 6-5.02s5.564 2.057 5.564 5.777v12.066h-3.103v-11.3c0-2.28-.906-3.869-3.869-3.869-3.358 0-4.584 2.346-4.584 5.276v9.901h-3.152v-.008zm25.308-17.844c-5.02 0-8.238 3.572-8.238 9.103 0 5.564 3.218 9.103 8.238 9.111 4.552 0 7.227-2.633 8.058-6.14l-3.07-1.267c-.362 2.782-1.803 4.806-4.947 4.806-3.177 0-5.094-2.386-5.094-6.502 0-4.123 1.917-6.469 5.094-6.469 3.144 0 4.585 1.984 4.947 4.766l3.07-1.268c-.831-3.506-3.506-6.14-8.058-6.14zm10.231 9.103c0-5.53 3.399-9.103 8.197-9.103 4.947 0 7.951 3.284 7.951 8.42 0 .543-.074 1.087-.148 1.407h-12.972c.182 3.688 2.239 5.778 5.35 5.778 3.506 0 4.914-1.917 5.597-3.432l1.918 2.165c-1.301 2.099-3.721 3.868-7.515 3.868-4.946 0-8.378-3.539-8.378-9.103zm3.111-1.555h10.222c-.329-3.218-2.206-4.914-5.128-4.914-2.823 0-4.699 1.663-5.094 4.914zM84.946 31.07c-7.292 0-11.267 5.35-11.267 12.428 0 7.333 3.432 12.428 9.893 12.428 5.564 0 9.276-3.852 9.276-7.54l.551 7.252h1.95v-12.14h-8.732v2.782h5.449c-.906 4.082-2.75 6.683-7.408 6.683-5.242 0-7.662-3.934-7.662-9.465 0-5.53 2.494-9.465 7.983-9.465 4.264 0 6.65 2.6 7.482 6.033l2.815-1.844c-1.622-4.584-5.268-7.152-10.33-7.152z" fill="currentColor"/></symbol><symbol fill="none" viewBox="0 0 164 24" id="header-logo-small" xmlns="http://www.w3.org/2000/svg"><path fill-rule="evenodd" clip-rule="evenodd" d="M18.526 7.93c1.09 1.153 1.982 2.51 1.986 4.07-.004 1.56-.896 2.92-1.986 4.07-.438.469-.895.92-1.352 1.371-1.016 1.004-2.03 2.006-2.821 3.183a7.988 7.988 0 00-.86 1.644 5.271 5.271 0 00-.332 1.668 12.109 12.109 0 01-3.742-.197c1.198-3.302 3.7-5.213 6.57-7.337 1.045-.808 2.103-1.65 2.808-2.74.342-.53.515-1.094.515-1.662 0-.568-.173-1.132-.515-1.661-.705-1.09-1.763-1.933-2.808-2.741C13.12 5.474 10.617 3.563 9.42.26A12.083 12.083 0 0113.16.063c.014.547.127 1.108.331 1.669.205.557.501 1.111.86 1.644.792 1.175 1.806 2.178 2.823 3.182.456.452.913.903 1.35 1.371zm-1.937 4.818c-.356 1.04-1.189 1.746-2.025 2.36-.899.631-1.854 1.197-2.8 1.757-.687.406-1.369.81-2.021 1.234-1.182.762-2.389 1.608-3.302 2.635-.42.472-.748.98-.9 1.442a12.159 12.159 0 01-2.677-2.289c1.062-1.104 2.47-1.919 3.856-2.568.91-.437 1.827-.825 2.742-1.213h.001c.481-.204.962-.407 1.44-.617.133-.062.298-.135.487-.218 1.41-.619 4.12-1.808 4.12-3.264 0-1.45-2.688-2.633-4.102-3.255-.197-.087-.368-.162-.505-.226-.478-.21-.958-.414-1.439-.617A64.122 64.122 0 016.72 6.694c-1.383-.65-2.79-1.464-3.856-2.568a12.05 12.05 0 012.677-2.29c.152.463.48.97.9 1.443.913 1.027 2.12 1.873 3.302 2.635.64.413 1.307.808 1.98 1.205.96.567 1.93 1.139 2.841 1.78.836.613 1.669 1.315 2.025 2.36.085.25.123.5.12.744.003.24-.032.49-.12.744zM8.736 14.05c1.401-.325 3.779-.877 3.779-2.051 0-1.172-2.375-1.725-3.776-2.05-.205-.048-.389-.09-.541-.13C6.233 9.372 1.457 7.912.744 7.612.374 8.554.12 9.556 0 10.596l.255.006c1.684.036 11.06.233 11.06 1.402 0 1.172-9.376 1.366-11.06 1.4L0 13.412c.12 1.04.374 2.042.744 2.984.713-.303 5.489-1.767 7.454-2.215.152-.039.334-.081.538-.129zm9.62-11.353c-.219-.384-.416-.78-.6-1.178A11.99 11.99 0 0123.912 12c0 4.505-2.484 8.427-6.155 10.48.183-.399.384-.794.6-1.178.502-.932 1.096-1.787 1.682-2.628 1.31-1.883 2.574-3.7 2.66-6.17a12 12 0 000-1.008c-.086-2.47-1.35-4.287-2.66-6.17-.586-.841-1.18-1.696-1.683-2.628zm13.503 7.676V.004h1.192L37.68 6.6l1.069 1.612-.078-1.58V.003h1.348v10.373H38.81l-4.755-6.75-.927-1.38.077 1.38v6.75H31.86v-.003zm11.1-3.683c-1.068.48-1.827 1.115-1.827 2.12 0 .992.713 1.718 1.986 1.722 1.545 0 2.353-1.115 2.6-2.106v.525c0 1.055.557 1.425 1.33 1.425h.504V9.153h-.12c-.275 0-.416-.109-.416-.465v-3.08c0-1.777-.991-2.878-2.833-2.878-1.672 0-2.786.946-3.234 1.718l.913.945c.385-.818 1.097-1.439 2.166-1.439 1.175 0 1.595.65 1.64 1.531L42.96 6.691zm2.755.805c0 1.083-.896 1.919-2.166 1.919-.698 0-1.054-.307-1.054-.819 0-.465.324-.776 1.037-1.114l2.183-1.023v1.037zm2.893.96V3.932H47.4V2.882h1.207v-.96l1.347-.99v1.95h2.462v1.051h-2.462v4.12c0 .96.448 1.192 1.037 1.192.667 0 1.129-.557 1.33-1.023l.448 1.33c-.325.512-1.037.991-2.074.991-1.22.004-2.088-.804-2.088-2.088zm4.92-5.574v5.185c0 1.58.914 2.463 2.385 2.463 1.502 0 2.307-1.02 2.585-2.198v2.042h1.33V2.882h-1.33V7.14c0 1.238-.525 2.26-1.982 2.26-1.27 0-1.658-.698-1.658-1.657v-4.86h-1.33zm7.408 7.492V2.882h1.347v1.997c.293-1.161 1.07-2.17 2.34-2.17.803 0 1.58.572 1.58 1.626 0 .635-.17 1.1-.293 1.284h-1.471c.247-.215.448-.68.448-1.1 0-.434-.233-.804-.773-.804-.96 0-1.827 1.128-1.827 2.416v4.243h-1.351zm7.107-3.683c-1.069.48-1.827 1.115-1.827 2.12 0 .992.713 1.718 1.986 1.722 1.545 0 2.353-1.115 2.6-2.106v.525c0 1.055.557 1.425 1.33 1.425h.504V9.153h-.12c-.275 0-.416-.109-.416-.465v-3.08c0-1.777-.991-2.878-2.833-2.878-1.05 0-1.696.233-2.278.702 0 0 .194.66-.043 1.961 0 0 1.097-1.439 2.166-1.439 1.175 0 1.594.65 1.64 1.531l-2.709 1.206zm2.759.805c0 1.083-.9 1.919-2.17 1.919-.695 0-1.05-.307-1.05-.819 0-.465.324-.776 1.036-1.114l2.184-1.023v1.037zm2.9 2.878V.004h1.347v10.37H73.7zM79.562.004v10.373h1.347V6.243h1.658c1.02 0 1.576.247 1.965.946l1.827 3.188h1.58l-1.859-3.206c-.325-.571-.713-.896-1.192-1.051 1.598-.219 2.726-1.27 2.726-2.928 0-2.074-1.502-3.188-3.53-3.188h-4.522zM80.91 5.11V1.196h2.956c1.238 0 2.353.448 2.353 1.996 0 1.471-1.115 1.92-2.353 1.92H80.91zm7.136 1.517c0-2.37 1.453-3.9 3.513-3.9 2.12 0 3.407 1.407 3.407 3.608 0 .232-.031.465-.063.603h-5.56c.078 1.58.96 2.476 2.294 2.476 1.502 0 2.105-.822 2.398-1.47l.822.927c-.557.9-1.594 1.658-3.22 1.658-2.12 0-3.591-1.517-3.591-3.902zm1.33-.666h4.38c-.137-1.38-.945-2.106-2.197-2.106-1.206.003-2.01.712-2.183 2.106zm7.435 1.735l-.977.759c.512 1.393 1.937 2.074 3.503 2.077 1.453 0 2.723-.666 2.723-2.151 0-1.038-.557-1.736-2.243-2.138l-.96-.247c-1.02-.247-1.517-.48-1.517-1.146 0-.635.558-.977 1.33-.977 1.069 0 1.782.557 2.152 1.439l1.023-.759c-.42-.99-1.517-1.827-3.097-1.827-1.626 0-2.677.836-2.677 2.198 0 1.379 1.16 1.89 2.229 2.137l.991.233c.882.201 1.563.42 1.563 1.1 0 .664-.589 1.006-1.471 1.006-1.489 0-2.307-.854-2.572-1.704zm6.103-1.069c0-2.37 1.456-3.9 3.53-3.9s3.545 1.53 3.545 3.9-1.471 3.902-3.545 3.902-3.53-1.531-3.53-3.902zm5.714 0c0-1.904-.9-2.772-2.184-2.772-1.269 0-2.151.868-2.151 2.772 0 1.891.882 2.773 2.151 2.773 1.284 0 2.184-.882 2.184-2.773zm2.575-3.746v5.185c0 1.58.91 2.463 2.385 2.463 1.502 0 2.306-1.02 2.585-2.198v2.042h1.33V2.882h-1.33V7.14c0 1.238-.529 2.26-1.982 2.26-1.27 0-1.658-.698-1.658-1.657v-4.86h-1.33zm7.563 7.492V2.882h1.347v1.997c.293-1.161 1.069-2.17 2.339-2.17.804 0 1.58.572 1.58 1.626 0 .635-.169 1.1-.293 1.284h-1.471c.247-.215.448-.68.448-1.1 0-.434-.233-.804-.772-.804-.96 0-1.827 1.128-1.827 2.416v4.243h-1.351zm9.329-7.647c-2.151 0-3.531 1.531-3.531 3.901 0 2.385 1.38 3.902 3.531 3.905 1.951 0 3.097-1.129 3.454-2.631l-1.316-.543c-.155 1.192-.773 2.06-2.12 2.06-1.362 0-2.183-1.02-2.183-2.787s.821-2.773 2.183-2.773c1.347 0 1.965.85 2.12 2.043l1.316-.543c-.357-1.503-1.503-2.632-3.454-2.632zm4.388 3.901c0-2.37 1.457-3.9 3.513-3.9 2.12 0 3.408 1.407 3.408 3.608a2.9 2.9 0 01-.064.603h-5.559c.078 1.58.96 2.476 2.293 2.476 1.503 0 2.106-.822 2.399-1.47l.822.927c-.558.9-1.595 1.658-3.221 1.658-2.12 0-3.591-1.517-3.591-3.902zm1.33-.666h4.381c-.141-1.38-.945-2.106-2.198-2.106-1.206.003-2.01.712-2.183 2.106zm-21.672 12.68v5.185h1.347v-10.37h-1.347v5.185zm2.681 5.185v-7.492h1.347v1.996c.293-1.16 1.101-2.151 2.572-2.151s2.384.882 2.384 2.476v5.171h-1.33v-4.843c0-.977-.388-1.658-1.658-1.658-1.439 0-1.968 1.005-1.968 2.261v4.244h-1.347v-.004zm8.307-2.677l-.978.758c.512 1.393 1.933 2.074 3.503 2.078 1.453 0 2.723-.667 2.723-2.152 0-1.037-.557-1.735-2.243-2.137l-.96-.247c-1.019-.247-1.516-.48-1.516-1.147 0-.635.557-.977 1.329-.977 1.069 0 1.782.558 2.152 1.44l1.023-.759c-.42-.991-1.517-1.827-3.097-1.827-1.626 0-2.677.836-2.677 2.197 0 1.38 1.16 1.891 2.229 2.138l.991.233c.882.2 1.563.42 1.563 1.1 0 .663-.589 1.006-1.471 1.006-1.489 0-2.307-.854-2.571-1.704zm6.878.758v-4.522H128.8v-1.051h1.207v-.96l1.347-.991v1.95h2.462v1.052h-2.462v4.12c0 .96.448 1.192 1.037 1.192.667 0 1.129-.557 1.33-1.023l.448 1.33c-.324.511-1.037.991-2.074.991-1.224.004-2.088-.804-2.088-2.088zm5.044-7.616v.837h1.347v-1.672h-1.347v.835zm0 5.789v3.746h1.347v-7.492h-1.347v3.746zm3.383 1.827v-4.522h-1.207v-1.051h1.207v-.96l1.347-.991v1.95h2.462v1.052h-2.462v4.12c0 .96.448 1.192 1.037 1.192.667 0 1.129-.557 1.33-1.023l.448 1.33c-.325.511-1.037.991-2.074.991-1.221.004-2.088-.804-2.088-2.088zm4.92-5.573v5.185c0 1.58.914 2.462 2.385 2.462 1.502 0 2.307-1.02 2.585-2.197v2.042h1.33v-7.492h-1.33v4.257c0 1.239-.525 2.261-1.982 2.261-1.27 0-1.658-.698-1.658-1.657v-4.861h-1.33zm8.363 5.573v-4.522h-1.206v-1.051h1.206v-.96l1.348-.991v1.95h2.462v1.052h-2.462v4.12c0 .96.448 1.192 1.037 1.192.667 0 1.129-.557 1.33-1.023l.448 1.33c-.325.511-1.037.991-2.074.991-1.221.004-2.089-.804-2.089-2.088zm8.06-5.728c-2.056 0-3.513 1.53-3.513 3.901 0 2.384 1.471 3.901 3.591 3.901 1.626 0 2.663-.758 3.22-1.657l-.821-.928c-.293.649-.896 1.47-2.399 1.47-1.333 0-2.215-.895-2.293-2.476h5.559a2.9 2.9 0 00.064-.603c0-2.2-1.288-3.608-3.408-3.608zm2.198 3.234h-4.381c.173-1.393.977-2.105 2.183-2.105 1.253 0 2.057.726 2.198 2.105zm-120.028.667c0-2.37 1.453-3.901 3.531-3.901 2.074 0 3.545 1.53 3.545 3.901 0 2.37-1.475 3.902-3.549 3.902s-3.527-1.531-3.527-3.902zm5.71 0c0-1.904-.895-2.772-2.183-2.772-1.27 0-2.151.867-2.151 2.772 0 1.89.882 2.773 2.151 2.773 1.288 0 2.184-.882 2.184-2.773zm1.51-3.746l2.71 7.492h1.703l2.723-7.492h-1.439l-1.47 4.444-.636 2.06-.649-2.06-1.485-4.444h-1.457zm7.25 3.746c0-2.37 1.452-3.901 3.512-3.901 2.12 0 3.408 1.407 3.408 3.608 0 .233-.032.466-.064.604h-5.559c.078 1.58.96 2.476 2.293 2.476 1.503 0 2.106-.822 2.399-1.471l.821.928c-.557.9-1.594 1.658-3.22 1.658-2.12 0-3.59-1.517-3.59-3.902zm1.329-.666h4.38c-.137-1.38-.944-2.106-2.197-2.106-1.206 0-2.014.712-2.183 2.106zm6.727-3.08v7.492h1.35v-4.243c0-1.287.868-2.416 1.828-2.416.54 0 .772.37.772.804 0 .42-.2.885-.448 1.1h1.471c.124-.183.293-.648.293-1.284 0-1.054-.776-1.626-1.58-1.626-1.27 0-2.046 1.01-2.339 2.17v-1.997h-1.347zm6.116 7.492v-7.492h1.348v1.997c.292-1.16 1.1-2.152 2.571-2.152 1.47 0 2.385.882 2.385 2.476v5.171h-1.33v-4.843c0-.977-.388-1.658-1.658-1.658-1.44 0-1.965 1.006-1.965 2.261v4.244h-1.35v-.004zm9.298-3.682c-1.069.48-1.827 1.114-1.827 2.12 0 .99.713 1.717 1.99 1.72 1.548 0 2.352-1.114 2.6-2.105v.526c0 1.054.556 1.425 1.329 1.425h.504v-1.224h-.12c-.278 0-.42-.11-.42-.466v-3.08c0-1.777-.99-2.878-2.832-2.878-1.672 0-2.786.946-3.234 1.718l.913.946c.385-.819 1.097-1.44 2.166-1.44 1.175 0 1.594.65 1.64 1.531l-2.709 1.207zm2.751.804c0 1.083-.895 1.919-2.165 1.919-.695 0-1.051-.307-1.055-.819 0-.465.325-.776 1.037-1.114l2.183-1.023v1.037zm2.875 2.878v-7.492h1.347v1.997c.293-1.16 1.101-2.152 2.572-2.152 1.47 0 2.384.882 2.384 2.476v5.171h-1.33v-4.843c0-.977-.387-1.658-1.657-1.658-1.44 0-1.965 1.006-1.965 2.261v4.244h-1.35v-.004zM96.36 16.18c-2.152 0-3.531 1.53-3.531 3.901 0 2.385 1.379 3.902 3.53 3.905 1.951 0 3.098-1.129 3.454-2.631l-1.316-.544c-.155 1.193-.772 2.06-2.12 2.06-1.361 0-2.183-1.023-2.183-2.786 0-1.767.822-2.773 2.183-2.773 1.348 0 1.965.85 2.12 2.043l1.316-.544c-.356-1.502-1.503-2.631-3.453-2.631zm4.384 3.901c0-2.37 1.457-3.901 3.513-3.901 2.12 0 3.408 1.407 3.408 3.608 0 .233-.032.466-.064.604h-5.559c.078 1.58.959 2.476 2.293 2.476 1.502 0 2.106-.822 2.398-1.471l.822.928c-.557.9-1.594 1.658-3.22 1.658-2.12 0-3.591-1.517-3.591-3.902zm1.333-.666h4.381c-.141-1.38-.945-2.106-2.197-2.106-1.21 0-2.014.712-2.184 2.106zm-65.671-6.1c-3.126 0-4.83 2.293-4.83 5.327 0 3.143 1.472 5.326 4.24 5.326 2.385 0 3.976-1.65 3.976-3.23l.236 3.107h.836v-5.203h-3.742v1.192h2.335c-.388 1.75-1.178 2.864-3.175 2.864-2.247 0-3.284-1.686-3.284-4.056s1.069-4.056 3.422-4.056c1.827 0 2.85 1.114 3.206 2.585l1.206-.79c-.694-1.965-2.257-3.065-4.426-3.065z" fill="#fff"/></symbol><symbol viewBox="0 0 22 22" id="instagram" xmlns="http://www.w3.org/2000/svg"><path d="M6.444.077c-1.17.055-1.97.242-2.668.516A5.383 5.383 0 001.83 1.866a5.388 5.388 0 00-1.265 1.95c-.271.7-.455 1.5-.506 2.67C.007 7.657-.004 8.034 0 11.021c.006 2.987.02 3.362.076 4.535.056 1.17.242 1.97.517 2.668a5.39 5.39 0 001.272 1.946c.612.61 1.225.985 1.951 1.265.7.27 1.5.455 2.67.506 1.172.052 1.548.063 4.535.058 2.986-.006 3.362-.02 4.535-.075 1.173-.056 1.968-.243 2.668-.516a5.392 5.392 0 001.945-1.273 5.393 5.393 0 001.265-1.95c.271-.7.455-1.5.506-2.67.051-1.175.063-1.55.058-4.536-.006-2.987-.02-3.361-.075-4.534-.056-1.173-.242-1.97-.516-2.67a5.401 5.401 0 00-1.273-1.945 5.368 5.368 0 00-1.95-1.265c-.7-.27-1.5-.455-2.67-.506-1.172-.05-1.549-.063-4.536-.058C7.992.007 7.618.02 6.444.077zm.129 19.885c-1.073-.046-1.655-.224-2.043-.374a3.425 3.425 0 01-1.267-.82 3.388 3.388 0 01-.825-1.263c-.15-.388-.332-.97-.382-2.042-.055-1.16-.066-1.508-.073-4.445-.006-2.936.005-3.284.056-4.444.046-1.071.225-1.654.374-2.042.198-.515.436-.88.82-1.267.384-.386.75-.624 1.264-.825.388-.151.97-.331 2.041-.382 1.16-.055 1.508-.066 4.444-.073 2.937-.006 3.285.005 4.446.056 1.071.047 1.654.224 2.042.374.514.198.88.436 1.267.82.386.385.624.75.825 1.264.151.387.331.968.382 2.041.055 1.16.068 1.508.073 4.444.005 2.936-.005 3.285-.056 4.444-.047 1.073-.224 1.655-.374 2.044a3.41 3.41 0 01-.82 1.266c-.385.386-.75.624-1.264.825-.387.151-.97.332-2.04.383-1.16.054-1.508.066-4.446.072-2.937.006-3.284-.006-4.444-.056M15.54 5.121a1.32 1.32 0 101.318-1.322A1.32 1.32 0 0015.54 5.12zM5.352 11.01a5.648 5.648 0 1011.297-.022 5.648 5.648 0 00-11.297.022zm1.981-.004a3.667 3.667 0 117.334-.016 3.667 3.667 0 01-7.334.017v-.001z" fill="currentColor"/></symbol><symbol fill="none" viewBox="0 0 19 19" id="languages-icon" xmlns="http://www.w3.org/2000/svg"><path fill-rule="evenodd" clip-rule="evenodd" d="M8.019 10.688l.918 1.098-.791 2.071-1.45-1.695-2.365 2.683-1.441-1.333 2.5-2.831-.584-.661a9.723 9.723 0 01-2.402-5.536L.969 4.48l.005-1.86 4.775.013.005-1.69 1.959.006-.005 1.69 4.722.014-.005 1.86-1.383-.003a9.723 9.723 0 01-2.435 5.521l-.588.657zm-.863-1.99a7.566 7.566 0 001.918-4.194L4.362 4.49a7.638 7.638 0 001.893 4.205l.449.512.452-.51zm6.455-1.523l.03.085 4.385 11.72-2.24-.007-.977-2.683-4.608-.013-.992 2.676-2.22-.006 4.496-11.778 2.126.006zm-1.227 2.826c-.051.19-.1.368-.155.54h-.01l-.075.223c-.042.124-.078.23-.105.32l-1.193 3.292 3.34.01-1.173-3.3a7.056 7.056 0 00-.187-.575l-.239-.798c-.02-.074-.041-.149-.062-.213a2.985 2.985 0 01-.085.298l-.056.203z" fill="currentColor"/></symbol><symbol viewBox="0 0 19 18" id="linkedin" xmlns="http://www.w3.org/2000/svg"><path d="M18.342 18h-4.076v-6.75c0-1.059-1.21-1.944-2.289-1.944-1.079 0-1.787.885-1.787 1.944V18H6.114V6h4.076v2c.675-1.071 2.401-1.763 3.592-1.763 2.519 0 4.56 2.042 4.56 4.513V18zM4.076 18H0V6h4.076v12zM2.038 0c1.126 0 2.038.895 2.038 2s-.912 2-2.038 2S0 3.105 0 2s.912-2 2.038-2z" fill="currentColor"/></symbol><symbol fill="none" viewBox="0 0 186 57" id="nrgi-logo-condensed" xmlns="http://www.w3.org/2000/svg"><path fill-rule="evenodd" clip-rule="evenodd" d="M43.235 18.752c2.544 2.691 4.626 5.86 4.634 9.498-.016 3.638-2.099 6.815-4.634 9.498-1.02 1.093-2.088 2.146-3.154 3.199-2.371 2.342-4.737 4.679-6.582 7.426-.832 1.252-1.531 2.535-2.009 3.836-.477 1.308-.74 2.617-.773 3.893a28.251 28.251 0 01-8.732-.46c2.798-7.705 8.633-12.166 15.333-17.12 2.436-1.885 4.905-3.852 6.551-6.395.798-1.235 1.202-2.552 1.202-3.877 0-1.325-.404-2.642-1.202-3.877-1.646-2.543-4.115-4.51-6.551-6.395-6.7-4.954-12.535-9.415-15.334-17.119A28.193 28.193 0 0130.717.4c.033 1.275.296 2.584.774 3.892.477 1.3 1.168 2.593 2.008 3.836 1.845 2.743 4.212 5.082 6.584 7.426 1.065 1.053 2.132 2.107 3.152 3.2zm-4.528 11.244c-.831 2.428-2.774 4.074-4.724 5.506-2.099 1.474-4.327 2.793-6.535 4.1-1.602.948-3.194 1.89-4.716 2.88-2.757 1.777-5.572 3.752-7.704 6.147-.98 1.103-1.745 2.288-2.099 3.367a28.367 28.367 0 01-6.247-5.342c2.478-2.576 5.762-4.477 8.996-5.992 2.126-1.02 4.267-1.926 6.403-2.831 1.122-.476 2.242-.95 3.359-1.44.309-.144.695-.314 1.136-.507 3.29-1.444 9.613-4.22 9.613-7.617 0-3.382-6.271-6.143-9.572-7.596-.458-.201-.858-.378-1.177-.527-1.117-.49-2.237-.965-3.359-1.44-2.136-.905-4.276-1.812-6.403-2.832-3.226-1.514-6.51-3.415-8.996-5.992A28.117 28.117 0 0112.93 4.54c.354 1.078 1.12 2.263 2.1 3.366 2.13 2.395 4.946 4.37 7.703 6.148 1.493.964 3.051 1.884 4.621 2.811h.001c2.239 1.322 4.5 2.657 6.629 4.152 1.95 1.432 3.893 3.07 4.724 5.506.198.585.288 1.17.28 1.737a5.038 5.038 0 01-.28 1.737zm-18.323 3.04c3.27-.76 8.818-2.048 8.818-4.786 0-2.735-5.542-4.024-8.81-4.784-.478-.111-.908-.21-1.264-.302-4.585-1.046-15.729-4.453-17.391-5.153A27.68 27.68 0 000 24.974c.036.003.244.007.595.015 3.929.082 25.808.542 25.808 3.27 0 2.735-21.88 3.188-25.808 3.269-.351.007-.559.012-.595.014a27.68 27.68 0 001.737 6.963c1.662-.708 12.806-4.123 17.39-5.169.355-.09.782-.19 1.257-.3zM42.83 6.546a35.94 35.94 0 01-1.399-2.748C50 8.58 55.794 17.74 55.794 28.25c0 10.51-5.794 19.663-14.362 24.453a39.21 39.21 0 011.4-2.749c1.171-2.174 2.559-4.168 3.925-6.132 3.056-4.393 6.007-8.633 6.206-14.395a27.715 27.715 0 000-2.354c-.2-5.761-3.15-10.002-6.206-14.394-1.366-1.964-2.754-3.958-3.926-6.132zm31.613 40.337V9.616h4.28L95.358 33.31l3.835 5.786-.28-5.67V9.616h4.84v37.267h-4.338L82.337 22.636l-3.333-4.946.28 4.947v24.246h-4.84zm34.947-37.267v37.267h4.848V32.036h5.951c3.671 0 5.671.889 7.062 3.39l6.559 11.457h5.671l-6.675-11.514c-1.16-2.066-2.56-3.226-4.28-3.786 5.729-.774 9.786-4.56 9.786-10.51 0-7.449-5.399-11.457-12.683-11.457h-16.239zm4.84 18.362V13.904h10.626c4.444 0 8.452 1.613 8.452 7.177 0 5.284-4 6.897-8.452 6.897h-10.626zm66.09 18.905V9.616h4.84V46.883h-4.84zM158.988 9.114c-11.235 0-17.35 8.239-17.35 19.136 0 11.292 5.284 19.136 15.226 19.136 8.568 0 14.28-5.926 14.28-11.605l.856 11.16h3.004v-18.69h-13.448v4.287h8.387c-1.391 6.28-4.223 10.288-11.4 10.288-8.065 0-11.794-6.066-11.794-14.576 0-8.51 3.844-14.576 12.297-14.576 6.559 0 10.238 4.008 11.514 9.292l4.337-2.84c-2.502-7.061-8.123-11.012-15.909-11.012z" fill="currentColor"/></symbol><symbol fill="none" viewBox="0 0 22 22" id="search-icon" xmlns="http://www.w3.org/2000/svg"><path fill-rule="evenodd" clip-rule="evenodd" d="M2.146 8.646a6.5 6.5 0 1113 0 6.5 6.5 0 01-13 0zm6.5-8.5a8.5 8.5 0 105.262 15.176l6.531 6.532 1.415-1.415-6.531-6.53A8.5 8.5 0 008.647.146z" fill="currentColor"/></symbol><symbol fill="none" viewBox="0 0 19 20" id="share-icon" xmlns="http://www.w3.org/2000/svg"><path fill-rule="evenodd" clip-rule="evenodd" d="M14.667 1.667a2.5 2.5 0 100 5 2.5 2.5 0 000-5zm-4.167 2.5a4.167 4.167 0 111.072 2.79l-2.957 1.71c.142.418.218.867.218 1.333 0 .48-.08.94-.23 1.369l2.943 1.703a4.167 4.167 0 11-.833 1.443L7.75 12.802a4.167 4.167 0 11.025-5.575l2.949-1.706a4.16 4.16 0 01-.225-1.353zM4.667 7.5a2.5 2.5 0 100 5 2.5 2.5 0 000-5zm7.5 8.333a2.5 2.5 0 115 0 2.5 2.5 0 01-5 0z" fill="currentColor"/></symbol><symbol viewBox="0 0 7 9" id="triangle-left" xmlns="http://www.w3.org/2000/svg"><path fill="currentColor" stroke="currentColor" stroke-linecap="round" stroke-linejoin="round" d="M0 4.5L7 9V0z"/></symbol><symbol viewBox="0 0 24 18" id="twitter" xmlns="http://www.w3.org/2000/svg"><path d="M24 2.13c-.883.362-1.832.606-2.828.716 1.017-.562 1.797-1.453 2.165-2.514a10.37 10.37 0 01-3.127 1.103C19.312.552 18.032 0 16.616 0c-2.719 0-4.924 2.034-4.924 4.544 0 .356.044.703.128 1.036C7.728 5.39 4.1 3.58 1.67.832a4.26 4.26 0 00-.666 2.284c0 1.577.87 2.968 2.19 3.783a5.222 5.222 0 01-2.23-.569v.057c0 2.202 1.697 4.038 3.95 4.456a5.316 5.316 0 01-2.224.078c.627 1.805 2.445 3.119 4.6 3.155-1.685 1.22-3.808 1.946-6.115 1.946-.398 0-.79-.022-1.175-.064A14.795 14.795 0 007.548 18c9.057 0 14.01-6.924 14.01-12.93 0-.196-.006-.392-.015-.587A9.611 9.611 0 0024 2.131z" fill="currentColor"/></symbol><symbol fill="none" viewBox="0 0 23 23" id="whatsapp" xmlns="http://www.w3.org/2000/svg"><path fill-rule="evenodd" clip-rule="evenodd" d="M19.649 3.34a11.407 11.407 0 00-8.1-3.34C5.235 0 .098 5.109.095 11.388a11.315 11.315 0 001.529 5.693L0 22.983 6.07 21.4a11.488 11.488 0 005.473 1.386h.005c6.312 0 11.45-5.11 11.452-11.389a11.287 11.287 0 00-3.351-8.057zm-8.1 17.522h-.005a9.546 9.546 0 01-4.844-1.32l-.348-.204-3.603.94.962-3.494-.226-.358a9.403 9.403 0 01-1.455-5.038c.002-5.218 4.272-9.465 9.522-9.465a9.48 9.48 0 016.73 2.777 9.381 9.381 0 012.785 6.696c-.003 5.22-4.273 9.466-9.519 9.466zm5.22-7.089c-.286-.142-1.693-.83-1.955-.925-.263-.096-.453-.143-.644.142-.19.285-.739.926-.906 1.116-.167.19-.334.213-.62.07-.286-.142-1.208-.442-2.301-1.412-.85-.754-1.425-1.686-1.592-1.97-.167-.286-.017-.44.125-.581.129-.128.286-.333.43-.499.143-.166.19-.285.286-.474.095-.19.048-.356-.024-.499-.071-.142-.643-1.543-.882-2.113-.232-.555-.469-.48-.644-.488-.167-.009-.357-.01-.548-.01-.191 0-.501.07-.764.356-.262.285-1.001.973-1.001 2.374 0 1.4 1.025 2.753 1.168 2.943.144.19 2.018 3.064 4.889 4.297a16.49 16.49 0 001.63.6c.686.217 1.31.186 1.803.113.55-.082 1.693-.688 1.931-1.353.239-.665.239-1.235.167-1.353-.071-.119-.262-.19-.548-.333z" fill="currentColor"/></symbol><symbol viewBox="0 0 24 17" id="youtube" xmlns="http://www.w3.org/2000/svg"><path fill-rule="evenodd" clip-rule="evenodd" d="M21.39.505a2.98 2.98 0 012.116 2.077C24.02 4.426 24 8.269 24 8.269s0 3.825-.494 5.669a2.98 2.98 0 01-2.116 2.077C19.512 16.5 12 16.5 12 16.5s-7.493 0-9.39-.505a2.98 2.98 0 01-2.116-2.077C0 12.094 0 8.25 0 8.25s0-3.824.494-5.668A3.04 3.04 0 012.61.485C4.488 0 12 0 12 0s7.512 0 9.39.505zM9.608 4.717l6.247 3.533-6.247 3.533V4.717z" fill="currentColor"/></symbol></svg>