<svg width="164" height="24" viewBox="0 0 164 24" fill="none" xmlns="http://www.w3.org/2000/svg">
<path fill-rule="evenodd" clip-rule="evenodd" d="M18.5257 7.92945C19.6156 9.08289 20.5081 10.4409 20.5116 12C20.5081 13.5591 19.6156 14.9206 18.5257 16.0705C18.0882 16.5386 17.6311 16.9901 17.1744 17.4411L17.1744 17.4411L17.1744 17.4412L17.1743 17.4412L17.1743 17.4412L17.1743 17.4412L17.1743 17.4412L17.1743 17.4412L17.1742 17.4413L17.1742 17.4413L17.1742 17.4413L17.1742 17.4413L17.1742 17.4413L17.1742 17.4414L17.1741 17.4414L17.1741 17.4414L17.1741 17.4414L17.1741 17.4414L17.1741 17.4414L17.1741 17.4415L17.174 17.4415L17.174 17.4415L17.174 17.4415L17.174 17.4415L17.174 17.4415L17.174 17.4416L17.1739 17.4416L17.1739 17.4416L17.1739 17.4416L17.1739 17.4416L17.1739 17.4416L17.1739 17.4417L17.1738 17.4417L17.1738 17.4417L17.1738 17.4417L17.1738 17.4417L17.1738 17.4417C16.1577 18.4452 15.1436 19.4467 14.3528 20.6243C13.9966 21.1605 13.6968 21.7108 13.4922 22.2681C13.2876 22.8289 13.1747 23.3898 13.1606 23.9365C12.7479 23.9788 12.3317 24 11.9119 24C11.0583 24 10.2223 23.9083 9.41811 23.739C10.6174 20.4374 13.1183 18.5256 15.9895 16.4021C17.0336 15.5944 18.0918 14.7513 18.7973 13.6614C19.1394 13.1323 19.3123 12.5679 19.3123 12C19.3123 11.4321 19.1394 10.8677 18.7973 10.3386C18.0918 9.24868 17.0336 8.40564 15.9895 7.59788C13.1183 5.47443 10.6174 3.56261 9.41811 0.261023C10.2223 0.0917113 11.0548 0 11.9119 0C12.3352 0 12.7514 0.0211641 13.1606 0.0634922C13.1747 0.610229 13.2876 1.17108 13.4922 1.73192C13.6968 2.28924 13.9931 2.84303 14.3528 3.37566C15.1439 4.55125 16.1583 5.55385 17.1747 6.55846C17.6313 7.00976 18.0883 7.46147 18.5257 7.92945ZM16.5891 12.7478C16.2328 13.7884 15.4004 14.4939 14.5644 15.1076C13.665 15.7393 12.7099 16.3046 11.7636 16.8646L11.7636 16.8646L11.7636 16.8647L11.7635 16.8647L11.7634 16.8647L11.7634 16.8647C11.0769 17.2711 10.3951 17.6746 9.74251 18.0988C8.56085 18.8607 7.3545 19.7073 6.44092 20.7337C6.02117 21.2064 5.69312 21.7143 5.54145 22.1764C4.53969 21.545 3.63669 20.7725 2.8642 19.8872C3.92593 18.7831 5.33334 17.9683 6.71958 17.3193C7.63041 16.8823 8.5473 16.4939 9.4623 16.1063L9.46233 16.1063L9.46236 16.1063L9.46239 16.1062L9.46241 16.1062L9.46244 16.1062L9.46247 16.1062L9.4625 16.1062L9.46253 16.1062L9.46256 16.1062L9.46259 16.1062L9.46261 16.1062L9.46264 16.1061L9.46267 16.1061L9.4627 16.1061L9.46273 16.1061L9.46276 16.1061L9.46279 16.1061L9.46281 16.1061L9.46285 16.1061L9.46289 16.106L9.46293 16.106L9.46297 16.106L9.46301 16.106L9.46305 16.106L9.46309 16.106L9.46313 16.1059L9.46317 16.1059L9.46321 16.1059L9.46325 16.1059L9.46329 16.1059L9.46334 16.1059L9.46338 16.1058L9.46342 16.1058L9.46346 16.1058L9.4635 16.1058L9.46355 16.1058C9.94427 15.9021 10.4245 15.6987 10.903 15.4886C11.0356 15.4269 11.2011 15.3542 11.39 15.2713C12.7997 14.6525 15.5097 13.4628 15.5097 12.0071C15.5097 10.5574 12.8222 9.37436 11.4077 8.75167L11.4077 8.75165L11.4074 8.75155L11.4072 8.75146C11.2112 8.66514 11.0396 8.5896 10.903 8.52561C10.4246 8.31556 9.94458 8.1122 9.46401 7.90862L9.46388 7.90857L9.46356 7.90843L9.46353 7.90842C8.54811 7.52063 7.63081 7.13204 6.71958 6.69493C5.33686 6.0459 3.92946 5.23108 2.8642 4.12702C3.64021 3.23814 4.53969 2.46565 5.54145 1.83778C5.69312 2.29986 6.02117 2.8078 6.44092 3.28046C7.3545 4.30692 8.56085 5.15348 9.74251 5.91538C10.3824 6.32839 11.0504 6.72281 11.7234 7.12015C12.6828 7.68657 13.6522 8.25893 14.5644 8.89951C15.4004 9.51327 16.2328 10.2152 16.5891 11.2593C16.6737 11.5097 16.7125 11.7602 16.709 12.0036C16.7125 12.2434 16.6772 12.4939 16.5891 12.7478ZM8.7359 14.0513L8.73595 14.0513L8.73596 14.0513C10.1374 13.7258 12.515 13.1736 12.515 12C12.515 10.8278 10.1399 10.2755 8.7395 9.94984L8.73949 9.94984L8.73938 9.94981C8.53436 9.90214 8.35024 9.85932 8.19753 9.82013C6.2328 9.37216 1.45679 7.91185 0.744268 7.61202C0.373898 8.55382 0.119929 9.55559 0 10.5962C0.0153445 10.5973 0.104403 10.5992 0.25497 10.6023C1.93884 10.6377 11.3157 10.8347 11.3157 12.0036C11.3157 13.1759 1.93853 13.37 0.254818 13.4049C0.104585 13.408 0.0156034 13.4098 0 13.411C0.119929 14.4515 0.373898 15.4533 0.744268 16.3951C1.45679 16.0917 6.2328 14.6279 8.19753 14.1799C8.34952 14.141 8.53233 14.0986 8.73571 14.0513L8.7359 14.0513ZM18.3561 2.69848C18.1374 2.314 17.9399 1.91894 17.7565 1.52035C21.4284 3.56973 23.9117 7.49566 23.9117 12.0001C23.9117 16.5045 21.4284 20.4269 17.7565 22.4798C17.9399 22.0812 18.1409 21.6861 18.3561 21.3017C18.8585 20.3699 19.4531 19.5152 20.0387 18.6736C21.3485 16.7911 22.6129 14.9737 22.6983 12.5045C22.7053 12.3387 22.7088 12.1694 22.7088 12.0001C22.7088 11.8308 22.7053 11.6614 22.6983 11.4957C22.6129 9.0264 21.3485 7.20904 20.0387 5.32651C19.4531 4.48489 18.8585 3.63023 18.3561 2.69848ZM31.859 10.3739V0.00350632H33.0512L37.6791 6.59963L38.7479 8.21162L38.6703 6.63137V0.00350632H40.0177V10.3774H38.8114L34.0565 3.62608L33.1288 2.24689L33.2064 3.62608V10.3774H31.859V10.3739ZM42.9594 6.6914C41.8906 7.17112 41.1323 7.80604 41.1323 8.81133C41.1323 9.80251 41.8448 10.5291 43.1181 10.5327C44.6631 10.5327 45.4709 9.41803 45.7178 8.42685V8.95243C45.7178 10.0071 46.2751 10.3775 47.0476 10.3775H47.552V9.15348H47.4321C47.1569 9.15348 47.0158 9.04414 47.0158 8.68787V5.60851C47.0158 3.83073 46.0247 2.7302 44.1834 2.7302C42.5114 2.7302 41.3968 3.67553 40.9488 4.44802L41.8624 5.39334C42.2469 4.575 42.9594 3.95419 44.0282 3.95419C45.2028 3.95419 45.6226 4.60322 45.6684 5.48505L42.9594 6.6914ZM45.7143 7.49563C45.7143 8.57853 44.8183 9.41451 43.5485 9.41451C42.8501 9.41451 42.4938 9.10763 42.4938 8.59616C42.4938 8.13056 42.8183 7.82015 43.5308 7.48153L45.7143 6.4586V7.49563ZM48.6067 8.45521V3.93317H47.4003V2.88202H48.6067V1.92258L49.9541 0.931403V2.88202H52.4162V3.93317H49.9541V8.05309C49.9541 9.01253 50.4021 9.24534 50.9912 9.24534C51.6578 9.24534 52.1199 8.68801 52.321 8.22241L52.769 9.55221C52.4444 10.0637 51.7319 10.5434 50.6949 10.5434C49.4744 10.5469 48.6067 9.73916 48.6067 8.45521ZM53.5274 2.88228V8.06747C53.5274 9.64771 54.4409 10.5295 55.9118 10.5295C57.4145 10.5295 58.2187 9.51015 58.4974 8.33202V10.3743H59.8272V2.88228H58.4974V7.13978C58.4974 8.37787 57.9718 9.4008 56.515 9.4008C55.2452 9.4008 54.8572 8.70239 54.8572 7.74295V2.88228H53.5274ZM60.935 10.3741V2.88205H62.2825V4.87853C62.5753 3.71803 63.3513 2.70921 64.6211 2.70921C65.4253 2.70921 66.2014 3.28064 66.2014 4.33532C66.2014 4.97024 66.0321 5.43584 65.9086 5.61927H64.4377C64.6846 5.4041 64.8857 4.93849 64.8857 4.51874C64.8857 4.08487 64.6529 3.7145 64.1132 3.7145C63.1537 3.7145 62.286 4.84325 62.286 6.13073V10.3741H60.935ZM68.0423 6.6914C66.9735 7.17112 66.2151 7.80604 66.2151 8.81133C66.2151 9.80251 66.9277 10.5291 68.201 10.5327C69.746 10.5327 70.5538 9.41803 70.8007 8.42685V8.95243C70.8007 10.0071 71.358 10.3775 72.1305 10.3775H72.6349V9.15348H72.515C72.2398 9.15348 72.0987 9.04414 72.0987 8.68787V5.60851C72.0987 3.83073 71.1076 2.7302 69.2663 2.7302C68.2151 2.7302 67.5696 2.96301 66.9876 3.43214C66.9876 3.43214 67.1816 4.09175 66.9453 5.39334C66.9453 5.39334 68.0423 3.95419 69.1111 3.95419C70.2857 3.95419 70.7054 4.60322 70.7513 5.48505L68.0423 6.6914ZM70.8007 7.49563C70.8007 8.57853 69.9012 9.41451 68.6314 9.41451C67.9365 9.41451 67.5802 9.10763 67.5802 8.59616C67.5802 8.13056 67.9047 7.82015 68.6173 7.48153L70.8007 6.4586V7.49563ZM73.7001 10.3739V5.1887V0.00351545H75.0476V5.1887V10.3739H73.7001ZM79.5625 0.00350632V10.3739V10.3774H80.91V6.24336H82.5678C83.5872 6.24336 84.1445 6.49028 84.5325 7.18869L86.3597 10.3774H87.94L86.0811 7.17105C85.7565 6.59963 85.3685 6.27511 84.8888 6.11991C86.4867 5.90121 87.6154 4.85007 87.6154 3.19222C87.6154 1.11814 86.1128 0.00350632 84.0846 0.00350632H79.5625ZM80.91 5.11109V1.19575H83.8659C85.104 1.19575 86.2186 1.64372 86.2186 3.19222C86.2186 4.66312 85.104 5.11109 83.8659 5.11109H80.91ZM88.0457 6.62844C88.0457 4.25807 89.499 2.7272 91.5589 2.7272C93.6789 2.7272 94.9664 4.13461 94.9664 6.33567C94.9664 6.56847 94.9346 6.80128 94.9029 6.93884H89.3438C89.4214 8.51909 90.3032 9.41504 91.6366 9.41504C93.1392 9.41504 93.7424 8.59316 94.0351 7.94413L94.857 8.87183C94.2997 9.7713 93.2626 10.5297 91.6366 10.5297C89.5166 10.5297 88.0457 9.01292 88.0457 6.62844ZM89.3755 5.96177H93.7565C93.6189 4.58258 92.8111 3.85595 91.5589 3.85595C90.3526 3.85948 89.5484 4.56847 89.3755 5.96177ZM96.8113 7.69722L95.8342 8.4556C96.3457 9.8489 97.7707 10.5297 99.3369 10.5332C100.79 10.5332 102.06 9.86653 102.06 8.38153C102.06 7.34449 101.503 6.64608 99.8166 6.24396L98.8572 5.99705C97.8378 5.75013 97.3404 5.51733 97.3404 4.85066C97.3404 4.21574 97.8977 3.87359 98.6702 3.87359C99.739 3.87359 100.452 4.43091 100.822 5.31274L101.845 4.55436C101.425 3.56318 100.328 2.7272 98.7478 2.7272C97.1217 2.7272 96.0706 3.56318 96.0706 4.92474C96.0706 6.30392 97.231 6.81539 98.2998 7.0623L99.291 7.2951C100.173 7.49616 100.854 7.71486 100.854 8.39563C100.854 9.05877 100.265 9.40093 99.3827 9.40093C97.8942 9.40093 97.0759 8.54731 96.8113 7.69722ZM102.914 6.62844C102.914 4.25807 104.37 2.7272 106.444 2.7272C108.518 2.7272 109.989 4.25807 109.989 6.62844C109.989 8.99881 108.518 10.5297 106.444 10.5297C104.37 10.5297 102.914 8.99881 102.914 6.62844ZM108.628 6.62844C108.628 4.72368 107.728 3.85595 106.444 3.85595C105.175 3.85595 104.293 4.72368 104.293 6.62844C104.293 8.51909 105.175 9.40093 106.444 9.40093C107.728 9.40093 108.628 8.51909 108.628 6.62844ZM111.203 2.88228V8.06747C111.203 9.64771 112.113 10.5295 113.588 10.5295C115.09 10.5295 115.894 9.51015 116.173 8.33202V10.3743H117.503V2.88228H116.173V7.13978C116.173 8.37787 115.644 9.4008 114.191 9.4008C112.921 9.4008 112.533 8.70239 112.533 7.74295V2.88228H111.203ZM118.766 10.3741V2.88205H120.113V4.87853C120.406 3.71803 121.182 2.70921 122.452 2.70921C123.256 2.70921 124.032 3.28064 124.032 4.33532C124.032 4.97024 123.863 5.43584 123.739 5.61927H122.268C122.515 5.4041 122.716 4.93849 122.716 4.51874C122.716 4.08487 122.483 3.7145 121.944 3.7145C120.984 3.7145 120.117 4.84325 120.117 6.13073V10.3741H118.766ZM128.095 2.7272C125.944 2.7272 124.564 4.25807 124.564 6.62844C124.564 9.01292 125.944 10.5297 128.095 10.5332C130.046 10.5332 131.192 9.40445 131.549 7.90181L130.233 7.3586C130.078 8.55084 129.46 9.41856 128.113 9.41856C126.751 9.41856 125.93 8.39916 125.93 6.63197C125.93 4.86477 126.751 3.85948 128.113 3.85948C129.46 3.85948 130.078 4.70957 130.233 5.90181L131.549 5.3586C131.192 3.85595 130.046 2.7272 128.095 2.7272ZM132.483 6.62844C132.483 4.25807 133.94 2.7272 135.996 2.7272C138.116 2.7272 139.404 4.13461 139.404 6.33567C139.404 6.56847 139.372 6.80128 139.34 6.93884H133.781C133.859 8.51909 134.741 9.41504 136.074 9.41504C137.577 9.41504 138.18 8.59316 138.473 7.94413L139.295 8.87183C138.737 9.7713 137.7 10.5297 136.074 10.5297C133.954 10.5297 132.483 9.01292 132.483 6.62844ZM133.813 5.96177H138.194C138.053 4.58258 137.249 3.85595 135.996 3.85595C134.79 3.85948 133.986 4.56847 133.813 5.96177ZM112.141 18.6418V23.827H113.488V18.6418V13.4566H112.141V18.6418ZM114.822 23.8271V16.335H116.169V18.3315C116.462 17.171 117.27 16.1798 118.741 16.1798C120.212 16.1798 121.125 17.0617 121.125 18.656V23.8271H119.795V18.9841C119.795 18.007 119.407 17.3262 118.137 17.3262C116.698 17.3262 116.169 18.3315 116.169 19.5872V23.8306H114.822V23.8271ZM123.129 21.1499L122.151 21.9082C122.663 23.3015 124.084 23.9823 125.654 23.9858C127.107 23.9858 128.377 23.3192 128.377 21.8342C128.377 20.7971 127.82 20.0987 126.134 19.6966L125.174 19.4497C124.155 19.2028 123.658 18.97 123.658 18.3033C123.658 17.6684 124.215 17.3262 124.987 17.3262C126.056 17.3262 126.769 17.8835 127.139 18.7654L128.162 18.007C127.742 17.0158 126.645 16.1798 125.065 16.1798C123.439 16.1798 122.388 17.0158 122.388 18.3774C122.388 19.7566 123.548 20.268 124.617 20.5149L125.608 20.7477C126.49 20.9488 127.171 21.1675 127.171 21.8483C127.171 22.5114 126.582 22.8536 125.7 22.8536C124.211 22.8536 123.393 21.9999 123.129 21.1499ZM130.007 21.9078V17.3858H128.8V16.3346H130.007V15.3752L131.354 14.384V16.3346H133.816V17.3858H131.354V21.5057C131.354 22.4652 131.802 22.698 132.391 22.698C133.058 22.698 133.52 22.1406 133.721 21.675L134.169 23.0048C133.845 23.5163 133.132 23.996 132.095 23.996C130.871 23.9995 130.007 23.1918 130.007 21.9078ZM135.051 14.2925V15.1285H136.398V14.2925V13.4566H135.051V14.2925ZM135.051 20.0809V23.8269H136.398V20.0809V16.3349H135.051V20.0809ZM138.434 21.9078V17.3858H137.227V16.3346H138.434V15.3752L139.781 14.384V16.3346H142.243V17.3858H139.781V21.5057C139.781 22.4652 140.229 22.698 140.818 22.698C141.485 22.698 141.947 22.1406 142.148 21.675L142.596 23.0048C142.271 23.5163 141.559 23.996 140.522 23.996C139.301 23.9995 138.434 23.1918 138.434 21.9078ZM143.354 16.3349V21.5201C143.354 23.1003 144.268 23.9822 145.739 23.9822C147.241 23.9822 148.046 22.9628 148.324 21.7846V23.827H149.654V16.3349H148.324V20.5924C148.324 21.8305 147.799 22.8534 146.342 22.8534C145.072 22.8534 144.684 22.155 144.684 21.1956V16.3349H143.354ZM151.717 21.9078V17.3858H150.511V16.3346H151.717V15.3752L153.065 14.384V16.3346H155.527V17.3858H153.065V21.5057C153.065 22.4652 153.513 22.698 154.102 22.698C154.769 22.698 155.231 22.1406 155.432 21.675L155.88 23.0048C155.555 23.5163 154.843 23.996 153.806 23.996C152.585 23.9995 151.717 23.1918 151.717 21.9078ZM159.777 16.1798C157.721 16.1798 156.264 17.7107 156.264 20.0811C156.264 22.4655 157.735 23.9823 159.855 23.9823C161.481 23.9823 162.518 23.2239 163.075 22.3245L162.254 21.3968C161.961 22.0458 161.358 22.8677 159.855 22.8677C158.522 22.8677 157.64 21.9717 157.562 20.3915H163.121C163.153 20.2539 163.185 20.0211 163.185 19.7883C163.185 17.5872 161.897 16.1798 159.777 16.1798ZM161.975 19.4144H157.594C157.767 18.0211 158.571 17.3086 159.777 17.3086C161.03 17.3086 161.834 18.0352 161.975 19.4144ZM41.9471 20.0812C41.9471 17.7109 43.4004 16.18 45.478 16.18C47.552 16.18 49.0229 17.7109 49.0229 20.0812C49.0229 22.4516 47.5485 23.9825 45.4744 23.9825C43.4004 23.9825 41.9471 22.4516 41.9471 20.0812ZM47.6579 20.0812C47.6579 18.1765 46.7619 17.3088 45.4744 17.3088C44.2046 17.3088 43.3228 18.1765 43.3228 20.0812C43.3228 21.9719 44.2046 22.8537 45.4744 22.8537C46.7619 22.8537 47.6579 21.9719 47.6579 20.0812ZM49.1674 16.3351L51.8764 23.8271H53.5801L56.3032 16.3351H54.864L53.3931 20.7795L52.7582 22.8395L52.1092 20.7795L50.6242 16.3351H49.1674ZM56.4161 20.0812C56.4161 17.7109 57.8694 16.18 59.9293 16.18C62.0493 16.18 63.3368 17.5874 63.3368 19.7885C63.3368 20.0213 63.305 20.2541 63.2733 20.3916H57.7142C57.7918 21.9719 58.6736 22.8678 60.0069 22.8678C61.5096 22.8678 62.1128 22.046 62.4055 21.3969L63.2274 22.3246C62.6701 23.2241 61.633 23.9825 60.0069 23.9825C57.887 23.9825 56.4161 22.4657 56.4161 20.0812ZM57.7459 19.4146H62.1269C61.9893 18.0354 61.1815 17.3088 59.9293 17.3088C58.723 17.3088 57.9152 18.0213 57.7459 19.4146ZM64.4726 16.3353V23.8273H65.8236V19.584C65.8236 18.2965 66.6913 17.1677 67.6507 17.1677C68.1904 17.1677 68.4232 17.5381 68.4232 17.972C68.4232 18.3917 68.2222 18.8573 67.9752 19.0725H69.4461C69.5696 18.8891 69.7389 18.4235 69.7389 17.7885C69.7389 16.7339 68.9629 16.1624 68.1587 16.1624C66.8888 16.1624 66.1128 17.1713 65.82 18.3318V16.3353H64.4726ZM70.5891 23.8273V16.3352H71.9366V18.3317C72.2293 17.1712 73.0371 16.18 74.508 16.18C75.9789 16.18 76.8925 17.0618 76.8925 18.6562V23.8273H75.5627V18.9842C75.5627 18.0072 75.1747 17.3264 73.9048 17.3264C72.4657 17.3264 71.9401 18.3317 71.9401 19.5874V23.8308H70.5891V23.8273ZM79.8872 20.1446C78.8184 20.6244 78.0601 21.2593 78.0601 22.2646C78.0601 23.2557 78.7726 23.9824 80.0495 23.9859C81.598 23.9859 82.4022 22.8713 82.6491 21.8801V22.4057C82.6491 23.4603 83.2064 23.8307 83.9789 23.8307H84.4833V22.6067H84.3634C84.0847 22.6067 83.9437 22.4974 83.9437 22.1411V19.0617C83.9437 17.284 82.9525 16.1834 81.1112 16.1834C79.4392 16.1834 78.3246 17.1288 77.8766 17.9012L78.7902 18.8466C79.1747 18.0282 79.8872 17.4074 80.956 17.4074C82.1306 17.4074 82.5504 18.0564 82.5962 18.9383L79.8872 20.1446ZM82.6385 20.9489C82.6385 22.0318 81.7426 22.8677 80.4728 22.8677C79.7779 22.8677 79.4216 22.5609 79.4181 22.0494C79.4181 21.5838 79.7426 21.2734 80.4551 20.9348L82.6385 19.9118V20.9489ZM85.5131 23.8273V16.3352H86.8605V18.3317C87.1533 17.1712 87.961 16.18 89.4319 16.18C90.9028 16.18 91.8164 17.0618 91.8164 18.6562V23.8273H90.4866V18.9842C90.4866 18.0072 90.0986 17.3264 88.8288 17.3264C87.3896 17.3264 86.864 18.3317 86.864 19.5874V23.8308H85.5131V23.8273ZM96.3597 16.18C94.208 16.18 92.8289 17.7109 92.8289 20.0812C92.8289 22.4657 94.208 23.9825 96.3597 23.986C98.3103 23.986 99.4567 22.8573 99.813 21.3546L98.4973 20.8114C98.3421 22.0036 97.7248 22.8714 96.3774 22.8714C95.0158 22.8714 94.1939 21.8484 94.1939 20.0848C94.1939 18.3176 95.0158 17.3123 96.3774 17.3123C97.7248 17.3123 98.3421 18.1624 98.4973 19.3546L99.813 18.8114C99.4567 17.3088 98.3103 16.18 96.3597 16.18ZM100.744 20.0812C100.744 17.7109 102.201 16.18 104.257 16.18C106.377 16.18 107.665 17.5874 107.665 19.7885C107.665 20.0213 107.633 20.2541 107.601 20.3916H102.042C102.12 21.9719 103.001 22.8678 104.335 22.8678C105.837 22.8678 106.441 22.046 106.733 21.3969L107.555 22.3246C106.998 23.2241 105.961 23.9825 104.335 23.9825C102.215 23.9825 100.744 22.4657 100.744 20.0812ZM102.077 19.4146H106.458C106.317 18.0354 105.513 17.3088 104.261 17.3088C103.051 17.3088 102.247 18.0213 102.077 19.4146ZM36.4056 13.3157C33.2804 13.3157 31.5767 15.6084 31.5767 18.6419C31.5767 21.7848 33.0476 23.9682 35.8165 23.9682C38.201 23.9682 39.7918 22.3174 39.7918 20.7372L40.0282 23.8448H40.8642V18.6419H37.1217V19.8342H39.4567C39.0687 21.5837 38.2786 22.6984 36.2821 22.6984C34.0352 22.6984 32.9982 21.0123 32.9982 18.6419C32.9982 16.2716 34.067 14.5855 36.4197 14.5855C38.2469 14.5855 39.2698 15.7001 39.6261 17.171L40.8324 16.3809C40.1375 14.4162 38.5749 13.3157 36.4056 13.3157Z" fill="white"/>
</svg>
