<svg width="381" height="56" viewBox="0 0 381 56" fill="none" xmlns="http://www.w3.org/2000/svg">
    <path fill-rule="evenodd" clip-rule="evenodd"
          d="M43.2265 18.5021C45.7697 21.1934 47.852 24.3621 47.8602 28C47.852 31.6379 45.7697 34.8148 43.2265 37.4979C42.2054 38.5905 41.1384 39.6443 40.0724 40.697L40.0723 40.6972L40.072 40.6974L40.072 40.6974C37.7011 43.0389 35.335 45.3756 33.4899 48.1235C32.6586 49.3745 31.959 50.6584 31.4816 51.9588C31.0043 53.2675 30.7409 54.5761 30.708 55.8518C29.745 55.9506 28.7738 56 27.7944 56C25.8026 56 23.852 55.786 21.9755 55.3909C24.7738 47.6872 30.6092 43.2263 37.3088 38.2716C39.745 36.3868 42.2141 34.4197 43.8602 31.8765C44.6586 30.642 45.0619 29.3251 45.0619 28C45.0619 26.6749 44.6586 25.358 43.8602 24.1235C42.2141 21.5802 39.745 19.6132 37.3088 17.7284C30.6092 12.7737 24.7738 8.31276 21.9755 0.609055C23.852 0.213993 25.7944 0 27.7944 0C28.782 0 29.7532 0.049383 30.708 0.148148C30.7409 1.42387 31.0043 2.73251 31.4816 4.04115C31.959 5.34156 32.6504 6.63375 33.4899 7.87654C35.3356 10.6196 37.7025 12.959 40.0742 15.3031C41.1396 16.3561 42.206 17.4101 43.2265 18.5021ZM38.7079 29.7448C37.8766 32.1728 35.9342 33.8189 33.9836 35.251C31.885 36.7248 29.6564 38.0438 27.4486 39.3506C25.8465 40.2988 24.2554 41.2406 22.7326 42.2304C19.9754 44.0082 17.1606 45.9835 15.0289 48.3786C14.0495 49.4814 13.284 50.6666 12.9301 51.7448C10.5927 50.2716 8.48569 48.4691 6.68322 46.4033C9.16059 43.8271 12.4445 41.9259 15.6791 40.4115C17.8053 39.3915 19.9457 38.4848 22.0817 37.58L22.0818 37.5799L22.0818 37.5799L22.0819 37.5799L22.082 37.5799L22.082 37.5799L22.0821 37.5798L22.0821 37.5798L22.0822 37.5798L22.0822 37.5798L22.0823 37.5797L22.0824 37.5797L22.0824 37.5797L22.0825 37.5797L22.0825 37.5796L22.0826 37.5796L22.0826 37.5796L22.0827 37.5796L22.0828 37.5796C23.2041 37.1045 24.3242 36.63 25.4404 36.1399C25.7497 35.9959 26.136 35.8264 26.5768 35.6329C29.866 34.189 36.1894 31.4131 36.1894 28.0164C36.1894 24.6339 29.9186 21.8734 26.6181 20.4204C26.1601 20.2188 25.7593 20.0424 25.4404 19.893C24.3243 19.4029 23.2042 18.9284 22.083 18.4534L22.0829 18.4534L22.0829 18.4533L22.0828 18.4533L22.0827 18.4533L22.0827 18.4533L22.0826 18.4532L22.0826 18.4532L22.0825 18.4532L22.0825 18.4532L22.0824 18.4531L22.0823 18.4531L22.0823 18.4531L22.0822 18.4531L22.0822 18.4531L22.0821 18.453L22.0821 18.453L22.082 18.453L22.0819 18.453L22.0819 18.4529L22.0818 18.4529L22.0818 18.4529L22.0817 18.4529L22.0817 18.4529L22.0816 18.4528C19.9457 17.548 17.8053 16.6413 15.6791 15.6214C12.4528 14.107 9.16882 12.2057 6.68322 9.62959C8.49392 7.55552 10.5927 5.75305 12.9301 4.28803C13.284 5.36622 14.0495 6.55141 15.0289 7.65429C17.1606 10.0493 19.9754 12.0247 22.7326 13.8024C24.2256 14.7661 25.7844 15.6864 27.3547 16.6136C29.5933 17.9352 31.8553 19.2707 33.9836 20.7654C35.9342 22.1975 37.8766 23.8354 38.7079 26.2716C38.9054 26.8559 38.996 27.4403 38.9877 28.0082C38.996 28.5679 38.9137 29.1522 38.7079 29.7448ZM20.3836 32.7864L20.3839 32.7863C23.6539 32.0268 29.2016 30.7383 29.2016 28.0001C29.2016 25.2648 23.6597 23.9761 20.3922 23.2163L20.3921 23.2163C19.9136 23.105 19.4839 23.0051 19.1276 22.9136C14.5432 21.8684 3.39918 18.461 1.73663 17.7614C0.872428 19.9589 0.279835 22.2964 0 24.7243C0.0357749 24.727 0.243271 24.7314 0.594082 24.7388H0.594097H0.594113H0.594128H0.594145H0.594161H0.594178H0.594196H0.594215H0.594235H0.594255H0.594275H0.594295H0.594316H0.594338H0.59436H0.594383H0.594407H0.59443H0.594454H0.594478H0.594503H0.594529H0.594555H0.594582H0.59461H0.59464H0.59467H0.594701H0.594733H0.594766H0.5948H0.594834H0.59487H0.594906H0.594943C4.524 24.8213 26.4033 25.281 26.4033 28.0083C26.4033 30.7436 4.52326 31.1966 0.594581 31.278C0.244034 31.2852 0.0364082 31.2895 0 31.2922C0.279835 33.7202 0.872428 36.0577 1.73663 38.2552C3.39918 37.5474 14.5432 34.1317 19.1276 33.0865C19.4823 32.9957 19.9089 32.8966 20.3836 32.7864ZM42.8311 6.29634C42.3209 5.39922 41.8599 4.47741 41.432 3.54737C49.9999 8.32926 55.7941 17.4898 55.7941 28C55.7941 38.5103 49.9999 47.6626 41.432 52.4527C41.8599 51.5227 42.3291 50.6009 42.8311 49.7037C44.0034 47.5297 45.3909 45.5355 46.7572 43.5717C49.8134 39.1791 52.7638 34.9386 52.9628 29.177C52.9793 28.7902 52.9875 28.3951 52.9875 28C52.9875 27.605 52.9793 27.2099 52.9628 26.8231C52.7638 21.0615 49.8134 16.821 46.7572 12.4284L46.7572 12.4284C45.3908 10.4646 44.0034 8.47042 42.8311 6.29634ZM74.3373 24.2056V0.00803755H77.1192L87.9175 15.399L90.4114 19.1603L90.2303 15.4731V0.00803755H93.3743V24.2138H90.5595L79.4649 8.46071L77.3003 5.24261L77.4813 8.46071V24.2138H74.3373V24.2056ZM100.238 15.6132C97.7446 16.7325 95.9751 18.214 95.9751 20.5597C95.9751 22.8724 97.6376 24.5679 100.609 24.5761C104.214 24.5761 106.099 21.9753 106.675 19.6626V20.8889C106.675 23.3498 107.975 24.214 109.778 24.214H110.954V21.358H110.675C110.033 21.358 109.703 21.1029 109.703 20.2716V13.0864C109.703 8.93829 107.391 6.37039 103.094 6.37039C99.1932 6.37039 96.5923 8.57615 95.5471 10.3786L97.6788 12.5844C98.5759 10.6749 100.238 9.22635 102.732 9.22635C105.473 9.22635 106.452 10.7408 106.559 12.7984L100.238 15.6132ZM106.666 17.4897C106.666 20.0165 104.576 21.9671 101.613 21.9671C99.9833 21.9671 99.152 21.251 99.152 20.0576C99.152 18.9712 99.9092 18.2469 101.572 17.4568L106.666 15.07V17.4897ZM113.415 19.7283V9.17689H110.601V6.72421H113.415V4.48553L116.559 2.17278V6.72421H122.304V9.17689H116.559V18.7901C116.559 21.0287 117.605 21.5719 118.979 21.5719C120.535 21.5719 121.613 20.2715 122.082 19.1851L123.127 22.288C122.37 23.4814 120.708 24.6008 118.288 24.6008C115.44 24.609 113.415 22.7242 113.415 19.7283ZM124.897 6.72444V18.8232C124.897 22.5104 127.029 24.5681 130.461 24.5681C133.967 24.5681 135.843 22.1895 136.494 19.4405V24.2059H139.597V6.72444H136.494V16.6586C136.494 19.5475 135.267 21.9343 131.868 21.9343C128.905 21.9343 128 20.3047 128 18.066V6.72444H124.897ZM142.181 24.2057V6.72425H145.325V11.3827C146.008 8.67487 147.819 6.32095 150.782 6.32095C152.658 6.32095 154.469 7.65429 154.469 10.1152C154.469 11.5967 154.074 12.6831 153.786 13.1111H150.354C150.93 12.609 151.399 11.5226 151.399 10.5432C151.399 9.53083 150.856 8.66664 149.597 8.66664C147.358 8.66664 145.333 11.3004 145.333 14.3045V24.2057H142.181ZM158.765 15.6132C156.271 16.7325 154.502 18.214 154.502 20.5597C154.502 22.8724 156.164 24.5679 159.135 24.5761C162.74 24.5761 164.625 21.9753 165.201 19.6626V20.8889C165.201 23.3498 166.502 24.214 168.304 24.214H169.481V21.358H169.201C168.559 21.358 168.23 21.1029 168.23 20.2716V13.0864C168.23 8.93829 165.917 6.37039 161.621 6.37039C159.168 6.37039 157.662 6.9136 156.304 8.00825C156.304 8.00825 156.757 9.54734 156.205 12.5844C156.205 12.5844 158.765 9.22635 161.259 9.22635C164 9.22635 164.979 10.7408 165.086 12.7984L158.765 15.6132ZM165.201 17.4897C165.201 20.0165 163.103 21.9671 160.14 21.9671C158.518 21.9671 157.687 21.251 157.687 20.0576C157.687 18.9712 158.444 18.2469 160.107 17.4568L165.201 15.07V17.4897ZM171.967 24.2058V12.107V0.0082626H175.111V12.107V24.2058H171.967ZM185.646 0.00803755V24.2056V24.2138H188.79V14.5677H192.658C195.037 14.5677 196.337 15.1438 197.243 16.7735L201.506 24.2138H205.193L200.856 16.7323C200.099 15.399 199.193 14.6418 198.074 14.2796C201.803 13.7694 204.436 11.3167 204.436 7.44837C204.436 2.60886 200.93 0.00803755 196.198 0.00803755H185.646ZM188.79 11.9257V2.78993H195.687C198.576 2.78993 201.177 3.8352 201.177 7.44837C201.177 10.8805 198.576 11.9257 195.687 11.9257H188.79ZM205.44 15.4652C205.44 9.93436 208.831 6.36235 213.638 6.36235C218.584 6.36235 221.588 9.6463 221.588 14.7821C221.588 15.3253 221.514 15.8685 221.44 16.1895H208.469C208.65 19.8767 210.708 21.9673 213.819 21.9673C217.325 21.9673 218.732 20.0496 219.416 18.5352L221.333 20.6998C220.033 22.7986 217.613 24.5681 213.819 24.5681C208.872 24.5681 205.44 21.029 205.44 15.4652ZM208.543 13.9097H218.765C218.444 10.6916 216.56 8.99609 213.638 8.99609C210.823 9.00432 208.947 10.6586 208.543 13.9097ZM225.893 17.9591L223.613 19.7286C224.807 22.9796 228.132 24.5681 231.786 24.5763C235.177 24.5763 238.14 23.0208 238.14 19.5558C238.14 17.136 236.84 15.5064 232.905 14.5681L230.667 13.992C228.288 13.4158 227.128 12.8726 227.128 11.3171C227.128 9.8356 228.428 9.03724 230.23 9.03724C232.724 9.03724 234.387 10.3377 235.251 12.3953L237.638 10.6257C236.658 8.31296 234.099 6.36235 230.412 6.36235C226.617 6.36235 224.165 8.31296 224.165 11.4899C224.165 14.708 226.872 15.9014 229.366 16.4776L231.679 17.0208C233.737 17.4899 235.325 18.0002 235.325 19.5887C235.325 21.136 233.951 21.9344 231.893 21.9344C228.42 21.9344 226.51 19.9426 225.893 17.9591ZM240.132 15.4652C240.132 9.93436 243.531 6.36235 248.371 6.36235C253.21 6.36235 256.642 9.93436 256.642 15.4652C256.642 20.9961 253.21 24.5681 248.371 24.5681C243.531 24.5681 240.132 20.9961 240.132 15.4652ZM253.465 15.4652C253.465 11.0208 251.367 8.99609 248.371 8.99609C245.408 8.99609 243.35 11.0208 243.35 15.4652C243.35 19.8767 245.408 21.9344 248.371 21.9344C251.367 21.9344 253.465 19.8767 253.465 15.4652ZM259.474 6.72444V18.8232C259.474 22.5104 261.597 24.5681 265.037 24.5681C268.543 24.5681 270.42 22.1895 271.07 19.4405V24.2059H274.173V6.72444H271.07V16.6586C271.07 19.5475 269.836 21.9343 266.445 21.9343C263.482 21.9343 262.576 20.3047 262.576 18.066V6.72444H259.474ZM277.12 24.2057V6.72425H280.264V11.3827C280.947 8.67487 282.757 6.32095 285.72 6.32095C287.597 6.32095 289.408 7.65429 289.408 10.1152C289.408 11.5967 289.013 12.6831 288.725 13.1111H285.292C285.869 12.609 286.338 11.5226 286.338 10.5432C286.338 9.53083 285.794 8.66664 284.535 8.66664C282.297 8.66664 280.272 11.3004 280.272 14.3045V24.2057H277.12ZM298.889 6.36235C293.868 6.36235 290.65 9.93436 290.65 15.4652C290.65 21.029 293.868 24.5681 298.889 24.5763C303.441 24.5763 306.115 21.9426 306.947 18.4364L303.877 17.1689C303.515 19.9508 302.074 21.9755 298.93 21.9755C295.753 21.9755 293.836 19.5969 293.836 15.4735C293.836 11.35 295.753 9.00432 298.93 9.00432C302.074 9.00432 303.515 10.9879 303.877 13.7698L306.947 12.5023C306.115 8.99609 303.441 6.36235 298.889 6.36235ZM309.128 15.4652C309.128 9.93436 312.527 6.36235 317.325 6.36235C322.272 6.36235 325.276 9.6463 325.276 14.7821C325.276 15.3253 325.202 15.8685 325.128 16.1895H312.156C312.337 19.8767 314.395 21.9673 317.506 21.9673C321.012 21.9673 322.42 20.0496 323.103 18.5352L325.021 20.6998C323.72 22.7986 321.3 24.5681 317.506 24.5681C312.56 24.5681 309.128 21.029 309.128 15.4652ZM312.23 13.9097H322.453C322.123 10.6916 320.247 8.99609 317.325 8.99609C314.51 9.00432 312.634 10.6586 312.23 13.9097ZM261.662 43.4979V55.5966H264.806V43.4979V31.3991H261.662V43.4979ZM267.918 55.597V38.1155H271.062V42.7739C271.745 40.0661 273.629 37.7533 277.062 37.7533C280.494 37.7533 282.625 39.811 282.625 43.5311V55.597H279.522V44.2966C279.522 42.0167 278.617 40.4282 275.654 40.4282C272.296 40.4282 271.062 42.7739 271.062 45.704V55.6052H267.918V55.597ZM287.3 49.3501L285.02 51.1196C286.214 54.3706 289.531 55.9591 293.193 55.9673C296.584 55.9673 299.547 54.4118 299.547 50.9468C299.547 48.527 298.247 46.8974 294.312 45.9591L292.074 45.383C289.695 44.8068 288.535 44.2636 288.535 42.7081C288.535 41.2266 289.835 40.4282 291.638 40.4282C294.131 40.4282 295.794 41.7287 296.658 43.7863L299.045 42.0167C298.065 39.704 295.506 37.7533 291.819 37.7533C288.024 37.7533 285.572 39.704 285.572 42.8809C285.572 46.099 288.28 47.2924 290.773 47.8686L293.086 48.4118C295.144 48.8809 296.732 49.3912 296.732 50.9797C296.732 52.527 295.358 53.3254 293.3 53.3254C289.827 53.3254 287.917 51.3336 287.3 49.3501ZM303.35 51.1193V40.5679H300.535V38.1152H303.35V35.8765L306.494 33.5638V38.1152H312.238V40.5679H306.494V50.1811C306.494 52.4197 307.539 52.9629 308.913 52.9629C310.469 52.9629 311.547 51.6625 312.016 50.5761L313.061 53.679C312.304 54.8724 310.642 55.9918 308.222 55.9918C305.366 56 303.35 54.1152 303.35 51.1193ZM315.119 33.3499V35.3005H318.263V33.3499V31.3993H315.119V33.3499ZM315.119 46.856V55.5968H318.263V46.856V38.1153H315.119V46.856ZM323.012 51.1193V40.5679H320.197V38.1152H323.012V35.8765L326.156 33.5638V38.1152H331.901V40.5679H326.156V50.1811C326.156 52.4197 327.201 52.9629 328.576 52.9629C330.132 52.9629 331.21 51.6625 331.679 50.5761L332.724 53.679C331.967 54.8724 330.304 55.9918 327.885 55.9918C325.037 56 323.012 54.1152 323.012 51.1193ZM334.494 38.1154V50.2142C334.494 53.9014 336.625 55.9591 340.058 55.9591C343.564 55.9591 345.44 53.5805 346.09 50.8315V55.5969H349.193V38.1154H346.09V48.0496C346.09 50.9385 344.864 53.3253 341.465 53.3253C338.502 53.3253 337.597 51.6957 337.597 49.457V38.1154H334.494ZM354.008 51.1193V40.5679H351.193V38.1152H354.008V35.8765L357.152 33.5638V38.1152H362.897V40.5679H357.152V50.1811C357.152 52.4197 358.197 52.9629 359.572 52.9629C361.127 52.9629 362.205 51.6625 362.674 50.5761L363.72 53.679C362.963 54.8724 361.3 55.9918 358.88 55.9918C356.032 56 354.008 54.1152 354.008 51.1193ZM372.814 37.7533C368.016 37.7533 364.617 41.3254 364.617 46.8562C364.617 52.42 368.049 55.9591 372.995 55.9591C376.79 55.9591 379.209 54.1896 380.51 52.0908L378.592 49.9262C377.909 51.4406 376.502 53.3583 372.995 53.3583C369.884 53.3583 367.827 51.2677 367.646 47.5805H380.617C380.691 47.2595 380.765 46.7163 380.765 46.1731C380.765 41.0373 377.761 37.7533 372.814 37.7533ZM377.942 45.3007H367.72C368.123 42.0496 370 40.3871 372.814 40.3871C375.736 40.3871 377.613 42.0826 377.942 45.3007ZM97.8763 46.8562C97.8763 41.3253 101.267 37.7533 106.115 37.7533C110.954 37.7533 114.387 41.3253 114.387 46.8562C114.387 52.3871 110.946 55.9591 106.107 55.9591C101.267 55.9591 97.8763 52.3871 97.8763 46.8562ZM111.201 46.8562C111.201 42.4118 109.111 40.3871 106.107 40.3871C103.144 40.3871 101.086 42.4118 101.086 46.8562C101.086 51.2677 103.144 53.3253 106.107 53.3253C109.111 53.3253 111.201 51.2677 111.201 46.8562ZM114.724 38.1154L121.045 55.5969H125.02L131.374 38.1154H128.016L124.584 48.4858L123.103 53.2924L121.588 48.4858L118.123 38.1154H114.724ZM131.638 46.8562C131.638 41.3253 135.029 37.7533 139.835 37.7533C144.782 37.7533 147.786 41.0373 147.786 46.1731C147.786 46.7163 147.712 47.2595 147.638 47.5805H134.666C134.847 51.2677 136.905 53.3582 140.016 53.3582C143.522 53.3582 144.93 51.4406 145.613 49.9261L147.531 52.0908C146.23 54.1895 143.81 55.9591 140.016 55.9591C135.07 55.9591 131.638 52.42 131.638 46.8562ZM134.74 45.3006H144.963C144.642 42.0825 142.757 40.3871 139.835 40.3871C137.02 40.3871 135.136 42.0496 134.74 45.3006ZM150.436 38.1152V55.5967H153.588V45.6955C153.588 42.6913 155.613 40.0576 157.851 40.0576C159.111 40.0576 159.654 40.9218 159.654 41.9341C159.654 42.9136 159.185 44 158.609 44.502H162.041C162.329 44.0741 162.724 42.9876 162.724 41.5062C162.724 39.0452 160.913 37.7119 159.037 37.7119C156.074 37.7119 154.263 40.0658 153.58 42.7736V38.1152H150.436ZM164.708 55.5969V38.1155H167.852V42.7739C168.535 40.0661 170.42 37.7533 173.852 37.7533C177.284 37.7533 179.416 39.8109 179.416 43.5311V55.5969H176.313V44.2965C176.313 42.0167 175.407 40.4282 172.444 40.4282C169.086 40.4282 167.86 42.7739 167.86 45.7039V55.6052H164.708V55.5969ZM186.403 47.0041C183.91 48.1235 182.14 49.605 182.14 51.9506C182.14 54.2634 183.802 55.9589 186.782 55.9671C190.395 55.9671 192.272 53.3663 192.848 51.0535V52.2799C192.848 54.7408 194.148 55.605 195.951 55.605H197.128V52.749H196.848C196.198 52.749 195.868 52.4939 195.868 51.6626V44.4774C195.868 40.3293 193.556 37.7613 189.259 37.7613C185.358 37.7613 182.757 39.9671 181.712 41.7696L183.844 43.9753C184.741 42.0659 186.403 40.6173 188.897 40.6173C191.638 40.6173 192.617 42.1317 192.724 44.1893L186.403 47.0041ZM192.823 48.8807C192.823 51.4074 190.733 53.3581 187.77 53.3581C186.148 53.3581 185.317 52.642 185.309 51.4486C185.309 50.3622 186.066 49.6379 187.728 48.8478L192.823 46.4609V48.8807ZM199.531 55.5969V38.1155H202.675V42.7739C203.358 40.0661 205.243 37.7533 208.675 37.7533C212.107 37.7533 214.239 39.8109 214.239 43.5311V55.5969H211.136V44.2965C211.136 42.0167 210.23 40.4282 207.267 40.4282C203.909 40.4282 202.683 42.7739 202.683 45.7039V55.6052H199.531V55.5969ZM224.839 37.7533C219.819 37.7533 216.601 41.3253 216.601 46.8562C216.601 52.42 219.819 55.9591 224.839 55.9673C229.391 55.9673 232.066 53.3336 232.897 49.8274L229.827 48.5599C229.465 51.3418 228.024 53.3665 224.88 53.3665C221.703 53.3665 219.786 50.9796 219.786 46.8644C219.786 42.741 221.703 40.3953 224.88 40.3953C228.024 40.3953 229.465 42.3788 229.827 45.1607L232.897 43.8932C232.066 40.3871 229.391 37.7533 224.839 37.7533ZM235.07 46.8562C235.07 41.3253 238.469 37.7533 243.267 37.7533C248.214 37.7533 251.218 41.0373 251.218 46.1731C251.218 46.7163 251.144 47.2595 251.07 47.5805H238.098C238.28 51.2677 240.337 53.3582 243.448 53.3582C246.954 53.3582 248.362 51.4406 249.045 49.9261L250.963 52.0908C249.662 54.1895 247.242 55.9591 243.448 55.9591C238.502 55.9591 235.07 52.42 235.07 46.8562ZM238.181 45.3006H248.403C248.074 42.0825 246.197 40.3871 243.275 40.3871C240.452 40.3871 238.576 42.0496 238.181 45.3006ZM84.9465 31.07C77.6543 31.07 73.679 36.4197 73.679 43.4979C73.679 50.8313 77.1111 55.9259 83.572 55.9259C89.1358 55.9259 92.8477 52.0741 92.8477 48.3868L93.3992 55.6379H95.3498V43.4979H86.6173V46.2798H92.0658C91.1605 50.3621 89.3169 52.963 84.6584 52.963C79.4156 52.963 76.9959 49.0288 76.9959 43.4979C76.9959 37.9671 79.4897 34.0329 84.9794 34.0329C89.2428 34.0329 91.6296 36.6337 92.4609 40.0658L95.2757 38.2222C93.6543 33.6379 90.0082 31.07 84.9465 31.07Z"
          fill="currentColor"/>
</svg>
