<svg width="22" height="22" viewBox="0 0 22 22" xmlns="http://www.w3.org/2000/svg">
  <path
    d="M6.44432 0.0769316C5.27391 0.132152 4.47464 0.318933 3.77592 0.593493C3.05277 0.875314 2.43984 1.2535 1.83 1.86554C1.22015 2.47758 0.844606 3.09094 0.564764 3.81518C0.293941 4.51545 0.110459 5.31537 0.0587584 6.48643C0.00705791 7.6575 -0.00438221 8.03392 0.00133785 11.0211C0.00705791 14.0083 0.020258 14.3827 0.0770186 15.5562C0.132899 16.7264 0.319021 17.5254 0.593584 18.2244C0.875847 18.9475 1.25359 19.5602 1.86586 20.1703C2.47812 20.7803 3.09105 21.155 3.81706 21.4353C4.51666 21.7056 5.31681 21.89 6.48766 21.9413C7.65852 21.9925 8.03538 22.0044 11.0217 21.9987C14.008 21.993 14.384 21.9798 15.5573 21.9241C16.7305 21.8684 17.5254 21.681 18.2246 21.4078C18.9477 21.1248 19.5609 20.7478 20.1705 20.1353C20.7801 19.5228 21.1554 18.909 21.4351 18.1843C21.7061 17.4847 21.8902 16.6846 21.9411 15.5146C21.9923 14.3405 22.0044 13.9656 21.9987 10.9788C21.993 7.99212 21.9796 7.61768 21.9239 6.44463C21.8682 5.27159 21.6819 4.47497 21.4076 3.77558C21.1249 3.05244 20.7475 2.44018 20.1355 1.82968C19.5235 1.21918 18.9092 0.844074 18.1847 0.565113C17.4847 0.294292 16.685 0.109712 15.5141 0.0591116C14.3433 0.0085114 13.9664 -0.00446864 10.979 0.00125138C7.9916 0.0069714 7.6176 0.0197314 6.44432 0.0769316ZM6.5728 19.9624C5.50029 19.9157 4.91795 19.7375 4.52986 19.5884C4.01594 19.3904 3.64985 19.151 3.26309 18.768C2.87633 18.385 2.63872 18.0176 2.43808 17.5047C2.28738 17.1166 2.10588 16.535 2.05572 15.4625C2.00116 14.3033 1.98972 13.9552 1.98334 11.0184C1.97696 8.08166 1.98818 7.73406 2.039 6.57443C2.08476 5.50281 2.26406 4.91981 2.413 4.53195C2.611 4.01737 2.84949 3.65194 3.23339 3.2654C3.61729 2.87886 3.9836 2.64082 4.49686 2.44018C4.88451 2.28882 5.46619 2.10886 6.53826 2.05782C7.69834 2.00282 8.04594 1.99182 10.9823 1.98544C13.9187 1.97906 14.2672 1.99006 15.4277 2.0411C16.4993 2.08774 17.0825 2.26528 17.47 2.4151C17.9841 2.6131 18.35 2.85092 18.7365 3.23548C19.1231 3.62004 19.3613 3.98503 19.562 4.49939C19.7135 4.88593 19.8935 5.46739 19.9441 6.54011C19.9993 7.70018 20.0119 8.048 20.0171 10.9841C20.0224 13.9203 20.0121 14.269 19.9613 15.4281C19.9144 16.5006 19.7366 17.0832 19.5873 17.4717C19.3893 17.9854 19.1506 18.3517 18.7664 18.7381C18.3823 19.1244 18.0164 19.3624 17.503 19.5631C17.1158 19.7142 16.5334 19.8946 15.4622 19.9456C14.3021 20.0002 13.9545 20.0116 11.0171 20.018C8.0796 20.0244 7.7331 20.0125 6.57302 19.9624M15.5403 5.12089C15.5416 5.84997 16.1334 6.44001 16.8625 6.43869C17.5916 6.43737 18.1817 5.84557 18.1803 5.11649C18.179 4.38741 17.5872 3.79736 16.8581 3.79868C16.8581 3.79868 16.8579 3.79868 16.8577 3.79868C16.1288 3.80022 15.539 4.39203 15.5403 5.12089ZM5.35201 11.011C5.35817 14.1306 7.89172 16.6538 11.0107 16.6478C14.1297 16.6419 16.6546 14.1086 16.6487 10.989C16.6427 7.86936 14.1085 5.34551 10.9891 5.35167C7.86972 5.35783 5.34607 7.8918 5.35201 11.011ZM7.33335 11.007C7.32939 8.9819 8.96775 7.33696 10.9929 7.333C13.018 7.32904 14.6629 8.96738 14.6669 10.9925C14.6709 13.0176 13.0325 14.6625 11.0074 14.6665C8.98249 14.6707 7.33753 13.0328 7.33335 11.0079V11.007Z"
    fill="currentColor"/>
</svg>
