<svg width="19" height="19" viewBox="0 0 19 19" fill="none" xmlns="http://www.w3.org/2000/svg">
    <path fill-rule="evenodd" clip-rule="evenodd"
          d="M8.01888 10.6885L8.93712 11.7863L8.14563 13.8572L6.69511 12.1624L4.33108 14.8453L2.88995 13.512L5.39055 10.6807L4.8061 10.0198C3.43891 8.47408 2.58604 6.51527 2.40357 4.48401L0.968983 4.47977L0.974489 2.61918L5.74946 2.63332L5.75446 0.942843L7.71262 0.948638L7.70761 2.63911L12.4302 2.65309L12.4247 4.51367L11.0425 4.50958C10.848 6.53972 9.98355 8.49345 8.60723 10.031L8.01888 10.6885ZM7.15564 8.69772C8.22724 7.51011 8.89125 6.05549 9.07386 4.50376L4.36172 4.48981C4.54561 6.04263 5.19053 7.50112 6.25509 8.69505L6.70385 9.20672L7.15564 8.69772ZM13.6106 7.17523L13.6418 7.26038L18.0261 18.9792L15.7852 18.9726L14.8088 16.2904L10.2014 16.2768L9.20913 18.9531L6.98919 18.9465L11.4849 7.16894L13.6106 7.17523ZM12.3844 10.0013C12.3326 10.1901 12.2836 10.3687 12.2289 10.5415L12.2184 10.5415C12.1919 10.6212 12.1668 10.6956 12.1436 10.7645C12.1018 10.8882 12.066 10.9945 12.0388 11.0832L10.8458 14.3755L14.1861 14.3854L13.0126 11.086C12.9816 10.9584 12.9193 10.7774 12.8258 10.5114L12.5874 9.71325C12.5666 9.63876 12.5459 9.56428 12.5252 9.50043C12.5089 9.57358 12.4866 9.64671 12.4627 9.7246C12.4554 9.74853 12.448 9.77291 12.4405 9.79787C12.4212 9.86706 12.4026 9.93482 12.3844 10.0013Z"
          fill="currentColor"/>
</svg>
