<svg width="19" height="18" viewBox="0 0 19 18" xmlns="http://www.w3.org/2000/svg">
  <path
    d="M18.3423 18H14.2663V11.25C14.2663 10.1914 13.0558 9.3058 11.977 9.3058C10.8983 9.3058 10.1902 10.1914 10.1902 11.25V18H6.11411V6H10.1902V8C10.8651 6.92857 12.5914 6.23727 13.7822 6.23727C16.3007 6.23727 18.3423 8.2786 18.3423 10.75V18ZM4.07607 18H0V6H4.07607V18ZM2.03804 0C3.16362 0 4.07608 0.89543 4.07608 2C4.07608 3.10457 3.16362 4 2.03804 4C0.912469 4 1.0204e-05 3.10457 1.0204e-05 2C1.0204e-05 0.89543 0.912469 0 2.03804 0Z"
    fill="currentColor"/>
</svg>
