<svg width="186" height="57" viewBox="0 0 186 57" fill="none" xmlns="http://www.w3.org/2000/svg">
  <path fill-rule="evenodd" clip-rule="evenodd"
        d="M43.2353 18.7521C45.7785 21.4434 47.8609 24.6121 47.8691 28.25C47.8526 31.8879 45.7703 35.0648 43.2353 37.7479C42.2143 38.8405 41.1472 39.8943 40.0812 40.947L40.0811 40.9472L40.0809 40.9474L40.0808 40.9474C37.7099 43.2889 35.3439 45.6256 33.4987 48.3735C32.6674 49.6245 31.9678 50.9084 31.4905 52.2088C31.0131 53.5175 30.7497 54.8261 30.7168 56.1018C29.7539 56.2006 28.7827 56.25 27.8032 56.25C25.8115 56.25 23.8609 56.036 21.9843 55.6409C24.7827 47.9372 30.6181 43.4763 37.3176 38.5216C39.7539 36.6368 42.223 34.6697 43.8691 32.1265C44.6674 30.892 45.0707 29.5751 45.0707 28.25C45.0707 26.9249 44.6674 25.608 43.8691 24.3735C42.223 21.8302 39.7539 19.8632 37.3176 17.9784C30.6181 13.0237 24.7827 8.56276 21.9843 0.859055C23.8609 0.463993 25.8032 0.25 27.8032 0.25C28.7909 0.25 29.7621 0.299383 30.7168 0.398148C30.7497 1.67387 31.0131 2.98251 31.4905 4.29115C31.9678 5.59156 32.6592 6.88375 33.4987 8.12654C35.3444 10.8696 37.7114 13.209 40.083 15.5531C41.1484 16.6061 42.2148 17.6601 43.2353 18.7521ZM38.7071 29.9956C37.8758 32.4236 35.9334 34.0697 33.9828 35.5018C31.8842 36.9756 29.6558 38.2946 27.4479 39.6013L27.4477 39.6014L27.4477 39.6015L27.4476 39.6015L27.4476 39.6016L27.4475 39.6016C25.8456 40.5497 24.2545 41.4915 22.7318 42.4812C19.9746 44.259 17.1598 46.2343 15.0281 48.6294C14.0487 49.7322 13.2832 50.9174 12.9293 51.9956C10.5919 50.5224 8.48489 48.7199 6.68242 46.6541C9.15979 44.0779 12.4437 42.1767 15.6783 40.6623C17.8044 39.6424 19.9447 38.7357 22.0806 37.8309L22.0806 37.8309L22.0807 37.8309L22.0808 37.8308L22.0808 37.8308L22.0809 37.8308L22.0809 37.8308L22.081 37.8307L22.081 37.8307L22.0811 37.8307L22.0812 37.8307L22.0812 37.8307L22.0813 37.8306C23.2028 37.3555 24.3232 36.8809 25.4396 36.3907C25.7489 36.2467 26.1352 36.0772 26.576 35.8837C29.8652 34.4398 36.1886 31.6639 36.1886 28.2672C36.1886 24.8847 29.9178 22.1242 26.6173 20.6712C26.1593 20.4696 25.7585 20.2932 25.4396 20.1438C24.3232 19.6535 23.2028 19.1789 22.0812 18.7038L22.0811 18.7038L22.0811 18.7038L22.081 18.7037L22.081 18.7037L22.0809 18.7037L22.0809 18.7037L22.0808 18.7036L22.0807 18.7036C19.9448 17.7988 17.8045 16.8921 15.6783 15.8722C12.452 14.3578 9.16802 12.4565 6.68242 9.8804C8.49312 7.80632 10.5919 6.00386 12.9293 4.53884C13.2832 5.61703 14.0487 6.80221 15.0281 7.90509C17.1598 10.3002 19.9746 12.2755 22.7318 14.0532C24.2246 15.0168 25.7832 15.937 27.3533 16.864L27.3535 16.8641L27.3537 16.8642L27.3539 16.8643L27.3539 16.8644L27.354 16.8644C29.5925 18.186 31.8545 19.5215 33.9828 21.0162C35.9334 22.4483 37.8758 24.0862 38.7071 26.5224C38.9046 27.1067 38.9952 27.6911 38.9869 28.259C38.9952 28.8187 38.9129 29.403 38.7071 29.9956ZM20.3836 33.0364L20.3839 33.0363C23.6539 32.2768 29.2016 30.9883 29.2016 28.2501C29.2016 25.5148 23.6597 24.2261 20.3922 23.4663L20.392 23.4663C19.9136 23.355 19.4839 23.2551 19.1276 23.1636C14.5432 22.1184 3.39917 18.711 1.73662 18.0114C0.872425 20.2089 0.279835 22.5464 0 24.9743C0.0357982 24.977 0.243541 24.9814 0.594766 24.9888H0.594799H0.594834H0.594869H0.594906H0.594943C4.524 25.0713 26.4033 25.531 26.4033 28.2583C26.4033 30.9936 4.52326 31.4466 0.594581 31.528C0.244034 31.5352 0.0364082 31.5395 0 31.5422C0.279835 33.9702 0.872425 36.3077 1.73662 38.5052C3.39917 37.7974 14.5432 34.3817 19.1276 33.3365C19.4823 33.2457 19.9089 33.1466 20.3836 33.0364ZM42.8311 6.54675C42.3209 5.64963 41.8599 4.72782 41.432 3.79777C49.9999 8.57967 55.7941 17.7402 55.7941 28.2504C55.7941 38.7607 49.9999 47.913 41.432 52.7031C41.8599 51.7731 42.3291 50.8513 42.8311 49.9541C44.0034 47.7801 45.3908 45.7859 46.7572 43.8221L46.7572 43.8221C49.8134 39.4295 52.7638 35.189 52.9628 29.4274C52.9793 29.0406 52.9875 28.6455 52.9875 28.2504C52.9875 27.8554 52.9793 27.4603 52.9628 27.0735C52.7638 21.3119 49.8134 17.0714 46.7572 12.6788C45.3909 10.715 44.0034 8.72083 42.8311 6.54675ZM74.4442 46.8834V9.61588H78.7241L95.3578 33.3114L99.1932 39.0974L98.9134 33.4266V9.61588H103.753V46.8834H99.4154L82.3372 22.6365L79.0039 17.69L79.2837 22.6365V46.8834H74.4442ZM109.391 9.61588V46.8834H114.239V32.0356H120.19C123.861 32.0356 125.861 32.9245 127.252 35.4266L133.811 46.8834H139.482L132.807 35.369C131.647 33.3031 130.247 32.1426 128.527 31.583C134.256 30.8093 138.313 27.0233 138.313 21.0727C138.313 13.6241 132.914 9.61588 125.63 9.61588H109.391ZM114.231 27.978V13.9039H124.857C129.301 13.9039 133.309 15.5171 133.309 21.0809C133.309 26.3649 129.309 27.978 124.857 27.978H114.231ZM180.321 46.8834V28.2496V9.61588H185.161V28.2496V46.8834H180.321ZM158.988 9.11434C147.753 9.11434 141.638 17.353 141.638 28.2501C141.638 39.5423 146.922 47.3859 156.864 47.3859C165.432 47.3859 171.144 41.46 171.144 35.781L172 46.9415H175.004V28.2501H161.556V32.5382H169.943C168.552 38.818 165.72 42.8263 158.543 42.8263C150.478 42.8263 146.749 36.7604 146.749 28.2501C146.749 19.7399 150.593 13.674 159.046 13.674C165.605 13.674 169.284 17.6822 170.56 22.9662L174.897 20.1267C172.395 13.065 166.774 9.11434 158.988 9.11434Z"
        fill="currentColor"/>
</svg>
