<svg width="22" height="22" viewBox="0 0 22 22" fill="none" xmlns="http://www.w3.org/2000/svg">
    <path fill-rule="evenodd" clip-rule="evenodd"
          d="M2.14648 8.64648C2.14648 5.05663 5.05663 2.14648 8.64648 2.14648C12.2363 2.14648 15.1465 5.05663 15.1465 8.64648C15.1465 12.2363 12.2363 15.1465 8.64648 15.1465C5.05663 15.1465 2.14648 12.2363 2.14648 8.64648ZM8.64648 0.146484C3.95206 0.146484 0.146484 3.95206 0.146484 8.64648C0.146484 13.3409 3.95206 17.1465 8.64648 17.1465C10.6334 17.1465 12.4611 16.4648 13.9084 15.3225L20.4395 21.8535L21.8537 20.4393L15.3226 13.9082C16.4648 12.4609 17.1465 10.6333 17.1465 8.64648C17.1465 3.95206 13.3409 0.146484 8.64648 0.146484Z"
          fill="currentColor"/>
</svg>
