<svg width="19" height="20" viewBox="0 0 19 20" fill="none" xmlns="http://www.w3.org/2000/svg">
    <path fill-rule="evenodd" clip-rule="evenodd"
          d="M14.6667 1.66667C13.286 1.66667 12.1667 2.78595 12.1667 4.16667C12.1667 5.54738 13.286 6.66667 14.6667 6.66667C16.0474 6.66667 17.1667 5.54738 17.1667 4.16667C17.1667 2.78595 16.0474 1.66667 14.6667 1.66667ZM10.5 4.16667C10.5 1.86548 12.3655 0 14.6667 0C16.9679 0 18.8333 1.86548 18.8333 4.16667C18.8333 6.46785 16.9679 8.33333 14.6667 8.33333C13.4383 8.33333 12.3341 7.80179 11.5715 6.95617L8.61524 8.66621C8.75666 9.085 8.83333 9.5336 8.83333 10.0001C8.83333 10.4796 8.75235 10.9401 8.60332 11.3688L11.5459 13.0724C12.3092 12.2101 13.4245 11.6666 14.6667 11.6666C16.9679 11.6666 18.8333 13.532 18.8333 15.8332C18.8333 18.1344 16.9679 19.9999 14.6667 19.9999C12.3655 19.9999 10.5 18.1344 10.5 15.8332C10.5 15.3728 10.5747 14.9299 10.7126 14.5158L7.75123 12.8013C6.98901 13.6401 5.88934 14.1668 4.66667 14.1668C2.36548 14.1668 0.5 12.3013 0.5 10.0001C0.5 7.69893 2.36548 5.83345 4.66667 5.83345C5.90261 5.83345 7.01286 6.37157 7.77591 7.2263L10.7249 5.52048C10.5791 5.09601 10.5 4.64058 10.5 4.16667ZM4.66667 7.50012C3.28595 7.50012 2.16667 8.6194 2.16667 10.0001C2.16667 11.3808 3.28595 12.5001 4.66667 12.5001C6.04738 12.5001 7.16667 11.3808 7.16667 10.0001C7.16667 8.6194 6.04738 7.50012 4.66667 7.50012ZM12.1667 15.8332C12.1667 14.4525 13.286 13.3332 14.6667 13.3332C16.0474 13.3332 17.1667 14.4525 17.1667 15.8332C17.1667 17.2139 16.0474 18.3332 14.6667 18.3332C13.286 18.3332 12.1667 17.2139 12.1667 15.8332Z"
          fill="currentColor"/>
</svg>
