<svg width="24" height="18" viewBox="0 0 24 18" xmlns="http://www.w3.org/2000/svg">
  <path
    d="M24 2.13076C23.117 2.49218 22.168 2.73644 21.1721 2.84628C22.1885 2.28389 22.9694 1.39339 23.337 0.332237C22.3855 0.85303 21.3318 1.23118 20.2102 1.43492C19.3121 0.551774 18.0325 0 16.6162 0C13.897 0 11.6922 2.0345 11.6922 4.54399C11.6922 4.90013 11.7358 5.24696 11.8198 5.57958C7.72753 5.39005 4.09933 3.58097 1.67086 0.831717C1.24699 1.50284 1.00418 2.28342 1.00418 3.11621C1.00418 4.69275 1.87341 6.08361 3.19465 6.89855C2.38758 6.87484 1.62826 6.67048 0.964455 6.33013C0.963985 6.34912 0.963985 6.36808 0.963985 6.38725C0.963985 8.58897 2.66126 10.4255 4.91374 10.843C4.50059 10.9469 4.06559 11.0024 3.61653 11.0024C3.29925 11.0024 2.9908 10.9739 2.6901 10.9209C3.3167 12.7261 5.1351 14.04 7.28977 14.0765C5.60462 15.2954 3.48152 16.0219 1.17457 16.0219C0.777133 16.0219 0.385199 16.0003 0 15.9583C2.17905 17.2476 4.76725 18 7.54787 18C16.6046 18 21.5574 11.0758 21.5574 5.0709C21.5574 4.87391 21.5525 4.67794 21.543 4.48301C22.5052 3.84232 23.34 3.04202 24 2.13076Z"
    fill="currentColor"/>
</svg>
