<svg width="23" height="23" viewBox="0 0 23 23" fill="none" xmlns="http://www.w3.org/2000/svg">
    <path fill-rule="evenodd" clip-rule="evenodd"
          d="M19.6488 3.3398C17.487 1.18717 14.6118 0.00109215 11.5483 0C5.23576 0 0.0982905 5.10854 0.096094 11.3879C0.0949958 13.3952 0.622691 15.3545 1.62482 17.0812L0 22.9832L6.07095 21.3996C7.74353 22.3072 9.62697 22.785 11.5434 22.7856H11.5483C17.8598 22.7856 22.9978 17.6765 23 11.3971C23.0011 8.35389 21.8112 5.49298 19.6488 3.34034V3.3398ZM11.5483 20.8623H11.5445C9.83672 20.8618 8.16142 20.4052 6.69971 19.5429L6.3521 19.3377L2.74939 20.2774L3.71088 16.7842L3.48465 16.4259C2.53194 14.9188 2.02841 13.1768 2.02951 11.3884C2.03171 6.16957 6.30158 1.92328 11.5522 1.92328C14.0945 1.92437 16.4843 2.91004 18.2815 4.69953C20.0787 6.48848 21.0677 8.8672 21.0666 11.3961C21.0644 16.6155 16.7945 20.8618 11.5483 20.8618V20.8623ZM16.7692 13.7731C16.4831 13.6306 15.0764 12.9425 14.8139 12.8475C14.5514 12.7525 14.3609 12.705 14.1703 12.99C13.9798 13.2751 13.4312 13.9162 13.2643 14.1057C13.0974 14.2957 12.9304 14.3192 12.6443 14.1766C12.3583 14.0341 11.4363 13.7338 10.343 12.7645C9.49248 12.0098 8.91806 11.0782 8.75118 10.7932C8.58424 10.5081 8.73361 10.3541 8.87634 10.2127C9.00482 10.0849 9.16243 9.88015 9.30574 9.71413C9.4491 9.54811 9.49632 9.42911 9.59183 9.23958C9.68741 9.04955 9.63962 8.88359 9.56826 8.74102C9.49683 8.59851 8.9247 7.19779 8.68582 6.62826C8.45352 6.07345 8.21745 6.14881 8.04227 6.13953C7.87533 6.13134 7.68481 6.1297 7.49372 6.1297C7.30263 6.1297 6.99289 6.20069 6.73044 6.48575C6.46798 6.77077 5.72886 7.45937 5.72886 8.85951C5.72886 10.2597 6.75408 11.6134 6.89738 11.8034C7.04068 11.9935 8.91531 14.8675 11.7855 16.1005C12.4681 16.3937 13.0013 16.569 13.4169 16.7001C14.1023 16.9169 14.726 16.8863 15.2191 16.8131C15.7688 16.7312 16.912 16.1245 17.1503 15.4599C17.3886 14.7954 17.3886 14.2252 17.3173 14.1068C17.2459 13.9883 17.0548 13.9167 16.7687 13.7742L16.7692 13.7731Z"
          fill="currentColor"/>
</svg>
