<svg width="24" height="17" viewBox="0 0 24 17" xmlns="http://www.w3.org/2000/svg">
  <path fill-rule="evenodd" clip-rule="evenodd"
        d="M21.3904 0.504706C22.4184 0.776471 23.2289 1.57235 23.5057 2.58176C24.0197 4.42588 23.9999 8.26941 23.9999 8.26941C23.9999 8.26941 23.9999 12.0935 23.5057 13.9376C23.2289 14.9471 22.4184 15.7429 21.3904 16.0147C19.5123 16.5 11.9999 16.5 11.9999 16.5C11.9999 16.5 4.50739 16.5 2.60954 15.9953C1.58154 15.7235 0.771002 14.9276 0.494232 13.9182C0 12.0935 0 8.25 0 8.25C0 8.25 0 4.42588 0.494232 2.58176C0.771002 1.57235 1.60131 0.757059 2.60954 0.485294C4.48763 0 11.9999 0 11.9999 0C11.9999 0 19.5123 0 21.3904 0.504706ZM9.60787 4.71706L15.855 8.25L9.60787 11.7829V4.71706Z"
        fill="currentColor"/>
</svg>
