<?xml version="1.0" encoding="UTF-8"?><svg id="b" xmlns="http://www.w3.org/2000/svg" xmlns:xlink="http://www.w3.org/1999/xlink" viewBox="0 0 3290.22 3147.37"><defs><style>.j{fill:url(#g);}.k{fill:url(#h);}.l{fill:url(#i);}.m{fill:url(#f);}.n{fill:url(#e);}.o{fill:none;}.p{clip-path:url(#d);}</style><clipPath id="d"><rect class="o" x="679.13" y="1099.92" width="1920" height="1080"/></clipPath><linearGradient id="e" x1="-773.82" y1="-1270.79" x2="1612.52" y2="823.8" gradientTransform="translate(1202.69 2180.63) rotate(3.73)" gradientUnits="userSpaceOnUse"><stop offset=".08" stop-color="#00545a"/><stop offset=".98" stop-color="#00c9c8"/></linearGradient><linearGradient id="f" x1="-505.61" y1="-1125.75" x2="1336.81" y2="491.42" xlink:href="#e"/><linearGradient id="g" x1="-290.84" y1="-759.79" x2="1176.76" y2="528.39" xlink:href="#e"/><linearGradient id="h" x1="-66.14" y1="-545.22" x2="1038.21" y2="424.12" xlink:href="#e"/><linearGradient id="i" x1="130.93" y1="-293.28" x2="917.75" y2="397.35" xlink:href="#e"/></defs><g id="c"><g class="p"><g><path class="n" d="m59.99,3147.37c195.37-415.93,135.31-569.54-31.73-1066.2-1.34-4-2.57-8.13-3.59-12.22-11.69-46.87-18.55-91.39-21.54-133.76C-62.38,1006.43,921.06,1403.84,921.06,584.61c0-268.14,396.49-460.34,619.86-529.78C1659.2,17.7,1780.67-.85,1902.52.03c290.5,2.14,555.84,113.89,773.78,292.4,335.82,275.05,316.61,743.83,281.18,1187.12-40.21,503.11-101.22,972.17,332.74,1095.96L59.99,3147.37Z"/><path class="m" d="m421.47,2788.68c150.84-321.13,104.47-439.73-24.5-823.18-1.04-3.09-1.98-6.28-2.77-9.44-9.03-36.19-14.45-70.55-16.63-103.28-34.07-512.68,708.71-410.23,708.71-1042.74,0-207.02,306.12-355.42,478.57-409.03,91.32-28.67,185.11-42.99,279.18-42.31,224.29,1.65,429.15,87.93,597.41,225.75,259.27,212.36,244.45,574.29,217.09,916.54-31.04,388.43-78.15,750.59,256.9,846.16l-2493.98,441.52Z"/><path class="j" d="m649.97,2809.39c6.94-1.23,22.91-51.23,26.12-59.02,7.61-18.48,14.74-37.17,21.11-56.12,11.05-32.87,19.86-66.56,24.79-100.91,9.26-64.44,3.01-128.96-11.4-192.15-26.89-117.91-88.2-230.63-96.29-352.21-7.85-118.15,42.58-222.31,121.98-307.03,60.5-64.54,131.03-117.43,202.03-169.51,93.55-68.63,195.47-142.47,263.75-237.47,25.2-34.89,46.43-72.64,63.19-112.29,15.14-35.8,21.34-74.36,34.97-110.53,12.05-31.99,28.61-62.23,48.83-89.78,90.34-123.1,249.01-177.28,396.35-185.86,20.07-1.17,40.3-1.62,60.39-1.47,182.24,1.34,348.68,71.44,485.4,183.42,210.66,172.54,198.61,466.61,176.39,744.69-25.22,315.6-63.5,609.85,208.73,687.51,0,0-2026.09,358.68-2026.36,358.73Z"/><path class="k" d="m938.82,2690.12c92.12-196.12,63.8-268.55-14.96-502.74-.63-1.89-1.21-3.83-1.69-5.76-5.51-22.1-8.83-43.09-10.16-63.07-7.87-118.47,62.02-210.5,147.83-283.76,89.98-76.82,194.66-137.72,273.82-226.75,32.11-36.12,58.31-79.05,73.05-125.21,25.18-78.81,54.68-153.72,123.14-204.4,57.04-42.23,127.24-63.32,197.17-70.7,52.93-5.58,106.69-3.58,159.24,4.66,2.33.36,4.65.74,6.97,1.13,102.9,17.27,198.81,64.55,279.24,130.42,158.35,129.69,149.29,350.74,132.59,559.76-18.96,237.23-47.73,458.41,156.9,516.78l-1523.15,269.65Z"/><path class="l" d="m1181.25,2650.25c65.99-140.49,45.7-192.38-10.72-360.14-.45-1.35-.87-2.75-1.21-4.13-3.95-15.83-6.32-30.87-7.27-45.18-8.07-121.33,94.15-196.78,180.91-261.91,39.22-29.44,79.63-55.76,112.09-93.46,22.43-26.05,41.34-55.16,55.9-86.31,15.26-32.65,23.2-66.36,42.92-97.09,53.48-83.33,154.74-115.58,249.76-114.89,98.13.72,187.75,38.47,261.37,98.77,113.43,92.91,106.94,251.25,94.98,400.99-13.58,169.94-34.19,328.38,112.39,370.2l-1091.12,193.16Z"/></g></g></g></svg>