<svg width="1920" height="1080" viewBox="0 0 1920 1080" fill="none" xmlns="http://www.w3.org/2000/svg">
    <mask id="mask0_2540_11603" style="mask-type:luminance" maskUnits="userSpaceOnUse" x="0" y="0" width="1920" height="1080">
        <path d="M1920 0H0V1080H1920V0Z" fill="white"/>
    </mask>
    <g mask="url(#mask0_2540_11603)">
        <path
            d="M-619.14 2047.45C-423.77 1631.52 -483.83 1477.91 -650.87 981.25C-652.21 977.25 -653.44 973.12 -654.46 969.03C-666.15 922.16 -673.01 877.64 -676 835.27C-741.51 -93.4901 241.93 303.92 241.93 -515.31C241.93 -783.45 638.42 -975.65 861.79 -1045.09C980.07 -1082.22 1101.54 -1100.77 1223.39 -1099.89C1513.89 -1097.75 1779.23 -986 1997.17 -807.49C2332.99 -532.44 2313.78 -63.66 2278.35 379.63C2238.14 882.74 2177.13 1351.8 2611.09 1475.59L-619.14 2047.45Z"
            fill="url(#paint0_linear_2540_11603)"/>
        <path
            d="M-257.66 1688.76C-106.82 1367.63 -153.19 1249.03 -282.16 865.58C-283.2 862.49 -284.14 859.3 -284.93 856.14C-293.96 819.95 -299.38 785.59 -301.56 752.86C-335.63 240.18 407.15 342.63 407.15 -289.88C407.15 -496.9 713.27 -645.3 885.72 -698.91C977.04 -727.58 1070.83 -741.9 1164.9 -741.22C1389.19 -739.57 1594.05 -653.29 1762.31 -515.47C2021.58 -303.11 2006.76 58.8199 1979.4 401.07C1948.36 789.5 1901.25 1151.66 2236.3 1247.23L-257.68 1688.75L-257.66 1688.76Z"
            fill="url(#paint1_linear_2540_11603)"/>
        <path
            d="M-29.1606 1709.47C-22.2206 1708.24 -6.25057 1658.24 -3.04057 1650.45C4.56943 1631.97 11.6994 1613.28 18.0694 1594.33C29.1194 1561.46 37.9294 1527.77 42.8594 1493.42C52.1194 1428.98 45.8694 1364.46 31.4594 1301.27C4.56943 1183.36 -56.7406 1070.64 -64.8306 949.06C-72.6806 830.91 -22.2506 726.75 57.1494 642.03C117.649 577.49 188.179 524.6 259.179 472.52C352.729 403.89 454.649 330.05 522.929 235.05C548.129 200.16 569.359 162.41 586.119 122.76C601.259 86.9598 607.459 48.3997 621.089 12.2297C633.139 -19.7603 649.699 -50.0003 669.919 -77.5503C760.259 -200.65 918.929 -254.83 1066.27 -263.41C1086.34 -264.58 1106.57 -265.03 1126.66 -264.88C1308.9 -263.54 1475.34 -193.44 1612.06 -81.4603C1822.72 91.0797 1810.67 385.15 1788.45 663.23C1763.23 978.83 1724.95 1273.08 1997.18 1350.74C1997.18 1350.74 -28.9106 1709.42 -29.1806 1709.47H-29.1606Z"
            fill="url(#paint2_linear_2540_11603)"/>
        <path
            d="M259.689 1590.2C351.809 1394.08 323.489 1321.65 244.729 1087.46C244.099 1085.57 243.519 1083.63 243.039 1081.7C237.529 1059.6 234.209 1038.61 232.879 1018.63C225.009 900.16 294.899 808.13 380.709 734.87C470.689 658.05 575.369 597.15 654.529 508.12C686.639 472 712.839 429.07 727.579 382.91C752.759 304.1 782.259 229.19 850.719 178.51C907.759 136.28 977.959 115.19 1047.89 107.81C1100.82 102.23 1154.58 104.23 1207.13 112.47C1209.46 112.83 1211.78 113.21 1214.1 113.6C1317 130.87 1412.91 178.15 1493.34 244.02C1651.69 373.71 1642.63 594.76 1625.93 803.78C1606.97 1041.01 1578.2 1262.19 1782.83 1320.56L259.679 1590.21L259.689 1590.2Z"
            fill="url(#paint3_linear_2540_11603)"/>
        <path
            d="M502.12 1550.33C568.11 1409.84 547.82 1357.95 491.4 1190.19C490.95 1188.84 490.53 1187.44 490.19 1186.06C486.24 1170.23 483.87 1155.19 482.92 1140.88C474.85 1019.55 577.07 944.1 663.83 878.97C703.05 849.53 743.46 823.21 775.92 785.51C798.35 759.46 817.26 730.35 831.82 699.2C847.08 666.55 855.02 632.84 874.74 602.11C928.22 518.78 1029.48 486.53 1124.5 487.22C1222.63 487.94 1312.25 525.69 1385.87 585.99C1499.3 678.9 1492.81 837.24 1480.85 986.98C1467.27 1156.92 1446.66 1315.36 1593.24 1357.18L502.12 1550.34V1550.33Z"
            fill="url(#paint4_linear_2540_11603)"/>
    </g>
    <defs>
        <linearGradient id="paint0_linear_2540_11603" x1="-165.96" y1="-237.721" x2="2079.06" y2="2007.67" gradientUnits="userSpaceOnUse">
            <stop offset="0.08" stop-color="#FF7D5F"/>
            <stop offset="0.98" stop-color="#FFBEAF"/>
        </linearGradient>
        <linearGradient id="paint1_linear_2540_11603" x1="92.2462" y1="-75.5404" x2="1825.56" y2="1658.06" gradientUnits="userSpaceOnUse">
            <stop offset="0.08" stop-color="#FF7D5F"/>
            <stop offset="0.98" stop-color="#FFBEAF"/>
        </linearGradient>
        <linearGradient id="paint2_linear_2540_11603" x1="282.753" y1="303.616" x2="1663.44" y2="1684.54" gradientUnits="userSpaceOnUse">
            <stop offset="0.08" stop-color="#FF7D5F"/>
            <stop offset="0.98" stop-color="#FFBEAF"/>
        </linearGradient>
        <linearGradient id="paint3_linear_2540_11603" x1="493.018" y1="532.349" x2="1531.97" y2="1571.48" gradientUnits="userSpaceOnUse">
            <stop offset="0.08" stop-color="#FF7D5F"/>
            <stop offset="0.98" stop-color="#FFBEAF"/>
        </linearGradient>
        <linearGradient id="paint4_linear_2540_11603" x1="673.282" y1="796.576" x2="1413.51" y2="1536.93" gradientUnits="userSpaceOnUse">
            <stop offset="0.08" stop-color="#FF7D5F"/>
            <stop offset="0.98" stop-color="#FFBEAF"/>
        </linearGradient>
    </defs>
</svg>
